<svg width="163" height="48" viewBox="0 0 163 48" fill="none" xmlns="http://www.w3.org/2000/svg">
<path d="M156.963 0.96C158.308 0.96 159.598 1.491 160.549 2.43618C161.5 3.38137 162.034 4.66331 162.034 6V42C162.034 43.3367 161.5 44.6186 160.549 45.5638C159.598 46.509 158.308 47.04 156.963 47.04H6.03704C4.69209 47.04 3.40224 46.509 2.45122 45.5638C1.5002 44.6186 0.965926 43.3367 0.965926 42V6C0.965926 4.66331 1.5002 3.38137 2.45122 2.43618C3.40224 1.491 4.69209 0.96 6.03704 0.96H156.963ZM156.963 0H6.03704C4.43591 0 2.90037 0.632141 1.76821 1.75736C0.636043 2.88258 0 4.4087 0 6V42C0 43.5913 0.636043 45.1174 1.76821 46.2426C2.90037 47.3679 4.43591 48 6.03704 48H156.963C158.564 48 160.1 47.3679 161.232 46.2426C162.364 45.1174 163 43.5913 163 42V6C163 4.4087 162.364 2.88258 161.232 1.75736C160.1 0.632141 158.564 0 156.963 0Z" fill="#0577EE"/>
<path d="M82.273 26.1C81.2591 26.1047 80.2694 26.4079 79.4287 26.9711C78.588 27.5344 77.934 28.3326 77.5493 29.2649C77.1647 30.1972 77.0665 31.2219 77.2672 32.2096C77.4679 33.1973 77.9585 34.1038 78.6771 34.8146C79.3957 35.5255 80.3101 36.0088 81.3049 36.2037C82.2996 36.3985 83.3301 36.2961 84.2664 35.9094C85.2026 35.5227 86.0026 34.8691 86.5654 34.0309C87.1282 33.1927 87.4286 32.2077 87.4286 31.2C87.4384 30.5255 87.3116 29.856 87.0557 29.2312C86.7998 28.6065 86.42 28.0393 85.939 27.5634C85.4579 27.0875 84.8854 26.7128 84.2556 26.4613C83.6258 26.2099 82.9516 26.087 82.273 26.1ZM82.273 34.296C81.6494 34.3393 81.0272 34.1952 80.4872 33.8825C79.9471 33.5697 79.5143 33.1027 79.2448 32.5421C78.9754 31.9816 78.8818 31.3535 78.9764 30.7394C79.0709 30.1253 79.3491 29.5537 79.7748 29.0988C80.2005 28.644 80.7541 28.327 81.3635 28.1889C81.9729 28.0509 82.6101 28.0983 83.192 28.3249C83.774 28.5515 84.2739 28.9469 84.6268 29.4596C84.9797 29.9724 85.1692 30.5788 85.1707 31.2C85.1902 31.5936 85.1301 31.9871 84.9941 32.3573C84.8581 32.7275 84.6489 33.0669 84.3789 33.3554C84.1088 33.644 83.7833 33.8758 83.4216 34.0374C83.06 34.1989 82.6694 34.2869 82.273 34.296ZM71.032 26.1C70.0176 26.1024 69.0267 26.4035 68.1844 26.9653C67.3421 27.5272 66.6863 28.3245 66.2998 29.2566C65.9132 30.1887 65.8133 31.2138 66.0127 32.2023C66.212 33.1908 66.7017 34.0984 67.4198 34.8105C68.138 35.5225 69.0523 36.0071 70.0474 36.2029C71.0425 36.3987 72.0736 36.297 73.0106 35.9106C73.9475 35.5243 74.7483 34.8706 75.3116 34.0322C75.8749 33.1937 76.1756 32.2082 76.1756 31.2C76.1854 30.5255 76.0586 29.856 75.8027 29.2312C75.5468 28.6065 75.167 28.0393 74.6859 27.5634C74.2049 27.0875 73.6324 26.7128 73.0026 26.4613C72.3728 26.2099 71.6985 26.087 71.0199 26.1H71.032ZM71.032 34.296C70.4082 34.3418 69.7849 34.1998 69.2434 33.8887C68.7019 33.5775 68.2671 33.1115 67.9958 32.5513C67.7245 31.9911 67.6291 31.3628 67.7221 30.748C67.8152 30.1332 68.0923 29.5605 68.5174 29.1044C68.9425 28.6484 69.4959 28.33 70.1055 28.1909C70.7152 28.0518 71.3529 28.0983 71.9356 28.3244C72.5183 28.5505 73.019 28.9458 73.3725 29.4586C73.726 29.9715 73.916 30.5783 73.9177 31.2C73.9372 31.5936 73.8771 31.9871 73.7411 32.3573C73.6051 32.7275 73.3959 33.0669 73.1258 33.3554C72.8557 33.644 72.5303 33.8758 72.1686 34.0374C71.8069 34.1989 71.4163 34.2869 71.0199 34.296H71.032ZM57.6419 27.672V29.832H62.8579C62.7761 30.8494 62.3506 31.8094 61.6504 32.556C61.1286 33.0843 60.5013 33.4981 59.8088 33.7709C59.1163 34.0438 58.3741 34.1695 57.6298 34.14C56.0927 34.14 54.6186 33.5331 53.5317 32.4529C52.4448 31.3727 51.8342 29.9076 51.8342 28.38C51.8342 26.8524 52.4448 25.3873 53.5317 24.3071C54.6186 23.2269 56.0927 22.62 57.6298 22.62C59.1002 22.5962 60.52 23.1529 61.578 24.168L63.1114 22.644C62.3972 21.9252 61.5451 21.3563 60.6056 20.9708C59.6661 20.5853 58.6582 20.3912 57.6419 20.4C56.5685 20.3585 55.4977 20.5327 54.4937 20.9124C53.4897 21.292 52.5731 21.8691 51.7989 22.6092C51.0247 23.3493 50.4088 24.2371 49.9881 25.2194C49.5674 26.2018 49.3505 27.2584 49.3505 28.326C49.3505 29.3936 49.5674 30.4502 49.9881 31.4326C50.4088 32.4149 51.0247 33.3027 51.7989 34.0428C52.5731 34.7829 53.4897 35.36 54.4937 35.7396C55.4977 36.1193 56.5685 36.2935 57.6419 36.252C58.6753 36.2984 59.7068 36.1243 60.6669 35.7414C61.6271 35.3584 62.4935 34.7756 63.208 34.032C64.473 32.6507 65.1484 30.8349 65.0916 28.968C65.0955 28.5132 65.055 28.0591 64.9708 27.612L57.6419 27.672ZM112.349 29.352C112.035 28.4313 111.446 27.6273 110.661 27.0466C109.876 26.4659 108.932 26.1358 107.955 26.1C107.294 26.0987 106.64 26.2321 106.034 26.4918C105.427 26.7516 104.881 27.1322 104.428 27.6102C103.975 28.0882 103.626 28.6534 103.402 29.2709C103.178 29.8883 103.084 30.5449 103.125 31.2C103.11 31.8707 103.232 32.5374 103.482 33.1604C103.733 33.7834 104.107 34.3498 104.582 34.8259C105.058 35.3019 105.625 35.6778 106.25 35.9311C106.875 36.1844 107.545 36.3098 108.22 36.3C109.065 36.3045 109.897 36.1008 110.643 35.7071C111.389 35.3134 112.025 34.742 112.494 34.044L110.744 32.844C110.482 33.2769 110.112 33.635 109.67 33.8832C109.228 34.1315 108.728 34.2613 108.22 34.26C107.697 34.2798 107.18 34.1428 106.737 33.8667C106.293 33.5906 105.943 33.1883 105.733 32.712L112.603 29.892L112.349 29.352ZM105.347 31.056C105.322 30.6848 105.372 30.3125 105.494 29.9609C105.617 29.6093 105.808 29.2855 106.058 29.0083C106.307 28.7312 106.61 28.5063 106.948 28.3469C107.286 28.1875 107.653 28.0968 108.027 28.08C108.416 28.0545 108.805 28.1433 109.144 28.3353C109.483 28.5273 109.758 28.814 109.935 29.16L105.347 31.056ZM99.7683 36H102.026V21H99.7683V36ZM96.0736 27.24H95.9891C95.6488 26.8619 95.232 26.5595 94.7659 26.3527C94.2998 26.1459 93.795 26.0393 93.2845 26.04C91.965 26.1036 90.7208 26.6693 89.8096 27.6199C88.8984 28.5705 88.3901 29.8331 88.3901 31.146C88.3901 32.4589 88.8984 33.7215 89.8096 34.6721C90.7208 35.6227 91.965 36.1884 93.2845 36.252C93.7962 36.2605 94.3035 36.1575 94.7708 35.9502C95.238 35.7429 95.6539 35.4363 95.9891 35.052H96.0616V35.784C96.0616 37.74 95.0111 38.784 93.3207 38.784C92.7578 38.7709 92.2114 38.5916 91.7513 38.2689C91.2911 37.9462 90.938 37.4948 90.7369 36.972L88.7688 37.788C89.1393 38.6836 89.7705 39.4488 90.5815 39.9855C91.3926 40.5222 92.3464 40.8058 93.3207 40.8C95.965 40.8 98.1504 39.252 98.1504 35.484V26.4H96.0736V27.24ZM93.4898 34.296C92.7109 34.2278 91.9861 33.8721 91.458 33.299C90.93 32.7259 90.6371 31.9771 90.6371 31.2C90.6371 30.4229 90.93 29.6741 91.458 29.101C91.9861 28.5279 92.7109 28.1722 93.4898 28.104C93.8759 28.1237 94.2542 28.22 94.6024 28.3872C94.9505 28.5545 95.2614 28.7893 95.5168 29.0778C95.7723 29.3663 95.967 29.7027 96.0896 30.0672C96.2122 30.4317 96.2601 30.8168 96.2306 31.2C96.2635 31.5848 96.2176 31.9723 96.0956 32.339C95.9735 32.7057 95.7779 33.0439 95.5206 33.3333C95.2633 33.6227 94.9496 33.8573 94.5984 34.0227C94.2473 34.1882 93.866 34.2812 93.4777 34.296H93.4898ZM122.926 21H117.529V36H119.787V30.312H122.938C123.582 30.3579 124.228 30.2716 124.837 30.0585C125.445 29.8453 126.003 29.5098 126.475 29.073C126.947 28.6361 127.324 28.1073 127.581 27.5194C127.839 26.9315 127.972 26.2972 127.972 25.656C127.972 25.0148 127.839 24.3805 127.581 23.7926C127.324 23.2047 126.947 22.6759 126.475 22.239C126.003 21.8022 125.445 21.4667 124.837 21.2535C124.228 21.0404 123.582 20.9541 122.938 21H122.926ZM122.926 28.2H119.775V23.088H122.975C123.662 23.088 124.32 23.3592 124.806 23.8419C125.292 24.3246 125.565 24.9793 125.565 25.662C125.565 26.3447 125.292 26.9994 124.806 27.4821C124.32 27.9648 123.662 28.236 122.975 28.236L122.926 28.2ZM136.848 26.04C136.026 25.9912 135.207 26.1821 134.493 26.5893C133.779 26.9965 133.2 27.6022 132.827 28.332L134.831 29.16C135.029 28.798 135.328 28.5009 135.693 28.3049C136.057 28.1089 136.471 28.0224 136.884 28.056C137.171 28.0227 137.461 28.0465 137.738 28.126C138.016 28.2055 138.274 28.339 138.499 28.5188C138.724 28.6987 138.91 28.9212 139.048 29.1735C139.185 29.4257 139.27 29.7026 139.299 29.988V30.144C138.574 29.7624 137.765 29.5645 136.944 29.568C134.783 29.568 132.598 30.768 132.598 32.94C132.619 33.4031 132.734 33.8573 132.935 34.2757C133.136 34.694 133.419 35.0681 133.768 35.3758C134.117 35.6834 134.524 35.9184 134.966 36.0669C135.408 36.2153 135.875 36.2742 136.341 36.24C136.909 36.2806 137.478 36.1683 137.988 35.9149C138.498 35.6615 138.93 35.2764 139.238 34.8H139.311V36H141.484V30.228C141.484 27.6 139.48 26.076 136.908 26.076L136.848 26.04ZM136.57 34.26C135.834 34.26 134.807 33.888 134.807 32.988C134.807 31.788 136.087 31.392 137.222 31.392C137.939 31.3744 138.648 31.5485 139.275 31.896C139.199 32.5457 138.89 33.1464 138.404 33.5874C137.918 34.0284 137.288 34.2801 136.63 34.296L136.57 34.26ZM149.405 26.4L146.821 32.904H146.749L144.068 26.4H141.653L145.674 35.496L143.38 40.548H145.734L151.916 26.4H149.405ZM129.108 36H131.366V21H129.108V36Z" fill="#0577EE"/>
<path d="M50.8443 17.124H49.9508V14.724H50.7115C51.0583 14.3587 51.3203 13.9222 51.4788 13.4453C51.6374 12.9684 51.6887 12.4628 51.6291 11.964V8.4H56.4587V14.712H57.2677V17.112H56.3742V15.6H50.8443V17.124ZM52.5226 12C52.5789 12.968 52.339 13.9302 51.8344 14.76H55.4566V9.288H52.5226V12ZM64.488 14.664C63.7821 15.3616 62.8272 15.7532 61.8317 15.7532C60.8363 15.7532 59.8813 15.3616 59.1754 14.664C58.4893 13.9422 58.1071 12.9869 58.1071 11.994C58.1071 11.0011 58.4893 10.0458 59.1754 9.324C59.5233 8.9757 59.9372 8.69925 60.393 8.51061C60.8489 8.32196 61.3379 8.22484 61.8317 8.22484C62.3255 8.22484 62.8145 8.32196 63.2704 8.51061C63.7263 8.69925 64.1401 8.9757 64.488 9.324C65.1768 10.0444 65.5609 11.0002 65.5609 11.994C65.5609 12.9878 65.1768 13.9436 64.488 14.664ZM59.8636 14.064C60.3864 14.5814 61.094 14.8718 61.8317 14.8718C62.5694 14.8718 63.2771 14.5814 63.7998 14.064C64.3156 13.4988 64.6014 12.7631 64.6014 12C64.6014 11.2369 64.3156 10.5012 63.7998 9.93601C63.2771 9.41866 62.5694 9.1282 61.8317 9.1282C61.094 9.1282 60.3864 9.41866 59.8636 9.93601C59.3478 10.5012 59.062 11.2369 59.062 12C59.062 12.7631 59.3478 13.4988 59.8636 14.064ZM70.2473 15.756C69.7489 15.7659 69.2536 15.6753 68.7913 15.4899C68.3289 15.3045 67.9092 15.028 67.5572 14.6771C67.2052 14.3261 66.9284 13.9081 66.7433 13.448C66.5582 12.9879 66.4687 12.4954 66.4802 12C66.4687 11.5046 66.5582 11.0121 66.7433 10.552C66.9284 10.092 67.2052 9.67386 67.5572 9.32294C67.9092 8.97202 68.3289 8.69552 68.7913 8.51009C69.2536 8.32467 69.7489 8.23416 70.2473 8.24401C70.7525 8.23157 71.254 8.33309 71.7141 8.54093C72.1742 8.74877 72.5809 9.05753 72.9036 9.44401L72.2516 10.068C72.0131 9.7671 71.7057 9.5273 71.3549 9.36864C71.0041 9.20998 70.6202 9.13707 70.2353 9.156C69.8646 9.14643 69.4959 9.21168 69.1514 9.34782C68.8069 9.48395 68.4938 9.68813 68.231 9.94801C67.7075 10.5166 67.4171 11.2593 67.4171 12.03C67.4171 12.8007 67.7075 13.5434 68.231 14.112C68.4938 14.3719 68.8069 14.5761 69.1514 14.7122C69.4959 14.8483 69.8646 14.9136 70.2353 14.904C70.6602 14.9002 71.0791 14.8024 71.4612 14.6177C71.8434 14.433 72.1794 14.1659 72.4448 13.836L73.0968 14.484C72.7682 14.8802 72.356 15.1997 71.8894 15.42C71.374 15.652 70.813 15.7668 70.2473 15.756ZM76.8881 15.6H75.9584V9.288H73.9299V8.4H78.9044V9.288H76.8881V15.6ZM85.3037 8.4L82.5629 14.472C82.4532 14.8312 82.2339 15.1477 81.9355 15.3777C81.637 15.6077 81.274 15.7399 80.8967 15.756C80.6471 15.7529 80.4007 15.6998 80.1722 15.6L80.4137 14.748C80.5604 14.8329 80.7269 14.8784 80.8967 14.88C81.0741 14.8933 81.2514 14.8514 81.4038 14.76C81.5492 14.6376 81.6614 14.4808 81.7298 14.304L81.9954 13.728L79.5806 8.412H80.6793L82.4663 12.54L84.205 8.4H85.3037ZM86.3541 15.6V8.4H91.5943V15.6H90.6646V9.288H87.2839V15.6H86.3541ZM93.2484 15.6V8.4H94.1781V11.484H97.8004V8.4H98.7301V15.6H97.8004V12.348H94.1781V15.6H93.2484ZM106.325 14.664C105.619 15.3616 104.664 15.7532 103.668 15.7532C102.673 15.7532 101.718 15.3616 101.012 14.664C100.326 13.9422 99.9438 12.9869 99.9438 11.994C99.9438 11.0011 100.326 10.0458 101.012 9.324C101.36 8.9757 101.774 8.69925 102.23 8.51061C102.686 8.32196 103.175 8.22484 103.668 8.22484C104.162 8.22484 104.651 8.32196 105.107 8.51061C105.563 8.69925 105.977 8.9757 106.325 9.324C107.013 10.0444 107.398 11.0002 107.398 11.994C107.398 12.9878 107.013 13.9436 106.325 14.664ZM101.7 14.064C102.223 14.5814 102.931 14.8718 103.668 14.8718C104.406 14.8718 105.114 14.5814 105.636 14.064C106.152 13.4988 106.438 12.7631 106.438 12C106.438 11.2369 106.152 10.5012 105.636 9.93601C105.114 9.41866 104.406 9.1282 103.668 9.1282C102.931 9.1282 102.223 9.41866 101.7 9.93601C101.184 10.5012 100.899 11.2369 100.899 12C100.899 12.7631 101.184 13.4988 101.7 14.064ZM111.191 15.6V8.4H113.811C114.355 8.38979 114.882 8.58736 115.284 8.952C115.485 9.12602 115.646 9.34198 115.755 9.58459C115.863 9.82721 115.917 10.0906 115.911 10.356C115.917 10.6759 115.824 10.9899 115.646 11.256C115.469 11.5145 115.222 11.7183 114.933 11.844C115.284 11.9592 115.591 12.1767 115.815 12.468C116.047 12.762 116.171 13.1263 116.165 13.5C116.171 13.7766 116.116 14.0512 116.003 14.3043C115.891 14.5573 115.723 14.7825 115.513 14.964C115.093 15.3494 114.539 15.5599 113.968 15.552L111.191 15.6ZM112.12 11.484H113.811C113.968 11.4906 114.126 11.4628 114.272 11.4027C114.418 11.3426 114.549 11.2516 114.656 11.136C114.763 11.0397 114.849 10.9229 114.909 10.7927C114.97 10.6625 115.003 10.5215 115.008 10.3782C115.013 10.2348 114.988 10.0921 114.936 9.95836C114.883 9.82467 114.805 9.70279 114.704 9.6C114.603 9.48657 114.478 9.39659 114.339 9.33645C114.199 9.27631 114.047 9.24748 113.895 9.252H112.169L112.12 11.484ZM112.12 14.712H113.992C114.155 14.7175 114.318 14.6869 114.468 14.6226C114.619 14.5583 114.753 14.4618 114.861 14.34C115.074 14.1206 115.195 13.8288 115.199 13.524C115.199 13.2057 115.072 12.9005 114.845 12.6755C114.619 12.4504 114.312 12.324 113.992 12.324H112.156L112.12 14.712Z" fill="#0577EE"/>
<path fill-rule="evenodd" clip-rule="evenodd" d="M61.8317 8.34484C61.3538 8.34484 60.8806 8.43883 60.4395 8.62139C59.9987 8.80376 59.5986 9.07092 59.2622 9.40749C58.5979 10.1069 58.2278 11.0322 58.2278 11.994C58.2278 12.9557 58.5978 13.8809 59.2619 14.5802C59.945 15.2547 60.8688 15.6332 61.8317 15.6332C62.7947 15.6332 63.7185 15.2546 64.4016 14.5801C65.0684 13.8822 65.4401 12.9565 65.4401 11.994C65.4401 11.0314 65.0683 10.1056 64.4014 9.40762C64.0649 9.07098 63.6647 8.80378 63.224 8.62139C62.7828 8.43883 62.3096 8.34484 61.8317 8.34484ZM60.3466 8.39983C60.8172 8.2051 61.3219 8.10484 61.8317 8.10484C62.3415 8.10484 62.8462 8.2051 63.3168 8.39983C63.7874 8.59456 64.2146 8.87992 64.5737 9.23946L64.5755 9.24132C65.2857 9.98402 65.6816 10.9695 65.6816 11.994C65.6816 13.0186 65.2857 14.004 64.5755 14.7467L64.5732 14.7491C63.8447 15.4691 62.8591 15.8732 61.8317 15.8732C60.8043 15.8732 59.8188 15.4691 59.0903 14.7491L59.0876 14.7465C58.3803 14.0024 57.9864 13.0176 57.9864 11.994C57.9864 10.9704 58.3804 9.98565 59.0876 9.2416L59.0897 9.23944C59.4488 8.87989 59.876 8.59456 60.3466 8.39983ZM103.668 8.34484C103.19 8.34484 102.717 8.43883 102.276 8.62139C101.835 8.80375 101.435 9.07089 101.099 9.40743C100.435 10.1068 100.064 11.0322 100.064 11.994C100.064 12.9557 100.434 13.8809 101.099 14.5802C101.782 15.2547 102.705 15.6332 103.668 15.6332C104.631 15.6332 105.555 15.2546 106.238 14.58C106.905 13.8821 107.277 12.9564 107.277 11.994C107.277 11.0314 106.905 10.1056 106.238 9.40765C105.902 9.071 105.501 8.80379 105.061 8.62139C104.619 8.43883 104.146 8.34484 103.668 8.34484ZM102.183 8.39983C102.654 8.2051 103.159 8.10484 103.668 8.10484C104.178 8.10484 104.683 8.2051 105.153 8.39983C105.624 8.59456 106.051 8.87992 106.41 9.23946L106.412 9.24132C107.122 9.98404 107.518 10.9695 107.518 11.994C107.518 13.0186 107.122 14.004 106.412 14.7467L106.41 14.7491C105.681 15.4691 104.696 15.8732 103.668 15.8732C102.641 15.8732 101.655 15.4691 100.927 14.7491L100.924 14.7465C100.217 14.0024 99.823 13.0176 99.823 11.994C99.823 10.9704 100.217 9.98565 100.924 9.2416L100.926 9.23944C101.286 8.87989 101.713 8.59456 102.183 8.39983ZM71.6641 8.65017C71.2207 8.44983 70.7373 8.35198 70.2503 8.36397L70.2449 8.3641C69.7628 8.35458 69.2837 8.44201 68.8364 8.62137C68.3892 8.80074 67.9832 9.0682 67.6427 9.40766C67.3023 9.74711 67.0345 10.1515 66.8554 10.5966C66.6764 11.0416 66.5898 11.5181 66.6009 11.9972L66.6011 12.0028C66.5899 12.4819 66.6764 12.9584 66.8554 13.4034C67.0345 13.8485 67.3023 14.2529 67.6427 14.5924C67.9832 14.9318 68.3892 15.1993 68.8364 15.3786C69.2837 15.558 69.7628 15.6456 70.2449 15.636L70.2473 15.756L70.2497 15.636C70.797 15.6465 71.3398 15.5355 71.8386 15.3112C72.2558 15.114 72.6279 14.8347 72.9326 14.4905L72.4527 14.0135C72.191 14.3104 71.872 14.5526 71.5141 14.7256C71.116 14.918 70.6799 15.0199 70.2374 15.024C69.8508 15.0338 69.4662 14.9657 69.1068 14.8237C68.7471 14.6816 68.4202 14.4684 68.1458 14.1971L68.1418 14.1931C67.5979 13.6024 67.2964 12.8307 67.2964 12.03C67.2964 11.2293 67.598 10.4577 68.1419 9.86699L68.1457 9.86284C68.4201 9.59152 68.7471 9.37844 69.1068 9.23631C69.4651 9.09473 69.8484 9.02658 70.2338 9.03593C70.6365 9.01684 71.038 9.09345 71.4049 9.25942C71.7328 9.40772 72.0246 9.62354 72.2614 9.89204L72.7377 9.43623C72.4391 9.10302 72.0736 8.83513 71.6641 8.65017ZM70.2474 15.876C69.7334 15.8859 69.2228 15.7924 68.7461 15.6012C68.2687 15.4097 67.8352 15.1242 67.4717 14.7618C67.1082 14.3994 66.8223 13.9676 66.6312 13.4925C66.4404 13.0183 66.348 12.5106 66.3594 12C66.348 11.4894 66.4404 10.9817 66.6312 10.5075C66.8223 10.0324 67.1082 9.60061 67.4717 9.23822C67.8352 8.87583 68.2687 8.5903 68.7461 8.39881C69.2227 8.20766 69.7332 8.11419 70.247 8.12398C70.7696 8.11152 71.2882 8.21671 71.7641 8.43168C72.2407 8.64703 72.6621 8.96693 72.9965 9.36736L73.0682 9.45313L72.2393 10.2464L72.1568 10.1423C71.9302 9.8564 71.6381 9.62859 71.3049 9.47786C70.9716 9.32713 70.6069 9.25787 70.2412 9.27586L70.2321 9.2763C69.8778 9.26715 69.5254 9.32919 69.196 9.45932C68.8676 9.58911 68.569 9.78361 68.3181 10.0311C67.8162 10.5773 67.5379 11.2902 67.5379 12.03C67.5379 12.7698 67.8162 13.4828 68.3181 14.0289C68.569 14.2764 68.8676 14.4709 69.196 14.6007C69.5254 14.7308 69.8778 14.7932 70.2321 14.784L70.2342 14.784C70.6412 14.7804 71.0424 14.6867 71.4084 14.5098C71.7745 14.3328 72.0963 14.0771 72.3505 13.7611L72.4348 13.6563L73.2597 14.4762L73.19 14.5603C72.8501 14.9701 72.4238 15.3005 71.9412 15.5284L71.9392 15.5293C71.4082 15.7684 70.8302 15.8868 70.2474 15.876ZM115.202 9.04062C114.823 8.6967 114.326 8.51035 113.813 8.51998L113.811 8.52H111.311V15.4779L113.965 15.432L113.969 15.432C114.51 15.4395 115.033 15.2404 115.431 14.8758L115.434 14.8734C115.631 14.7035 115.787 14.4926 115.893 14.2557C115.998 14.0188 116.05 13.7617 116.044 13.5027L116.044 13.4982C116.05 13.152 115.935 12.8145 115.72 12.5421L115.719 12.5409C115.51 12.2687 115.223 12.0656 114.896 11.9579L114.597 11.8597L114.885 11.7341C115.152 11.6175 115.381 11.4286 115.546 11.189C115.71 10.9433 115.796 10.6534 115.791 10.3581V10.3537C115.796 10.1058 115.746 9.85988 115.644 9.63333C115.543 9.40678 115.393 9.20513 115.204 9.04263L115.202 9.04062ZM115.364 8.86242C114.94 8.47794 114.383 8.26952 113.809 8.28H111.07V15.7221L113.966 15.672L113.968 15.672C114.569 15.6798 115.151 15.4585 115.594 15.0534C115.817 14.8606 115.994 14.6214 116.114 14.3528C116.233 14.0844 116.292 13.7931 116.286 13.4996L116.286 13.5018L116.165 13.5L116.286 13.4973L116.286 13.4996C116.291 13.0994 116.159 12.7094 115.91 12.3945C115.726 12.1546 115.488 11.9617 115.217 11.8299C115.426 11.6995 115.606 11.5274 115.746 11.3236L115.746 11.3226C115.938 11.0367 116.038 10.6996 116.032 10.3561L116.032 10.3584L115.911 10.356L116.032 10.3539L116.032 10.3561C116.037 10.0738 115.98 9.79385 115.865 9.53586C115.75 9.27766 115.579 9.04778 115.364 8.86242ZM51.5084 8.28H56.5795V14.592H57.3884V17.232H56.2535V15.72H50.965V17.244H49.8301V14.604H50.6589C50.9761 14.2593 51.2166 13.8516 51.3642 13.4077C51.5172 12.9475 51.5667 12.4595 51.5092 11.9781L51.5084 11.9711V8.28ZM51.7499 8.52V11.957C51.8102 12.4709 51.7568 12.9917 51.5935 13.483C51.4294 13.9765 51.1583 14.4283 50.7993 14.8064L50.7636 14.844H50.0716V17.004H50.7236V15.48H56.495V16.992H57.147V14.832H56.338V8.52H51.7499ZM73.8092 8.28H79.0252V9.408H77.0088V15.72H75.8376V9.408H73.8092V8.28ZM74.0507 8.52V9.168H76.0791V15.48H76.7673V9.168H78.7837V8.52H74.0507ZM84.1245 8.28H85.4902L82.6761 14.5143C82.5584 14.8942 82.3256 15.2288 82.0095 15.4725C81.6912 15.7177 81.3042 15.8587 80.9019 15.8759L80.8951 15.8762C80.6294 15.8728 80.367 15.8161 80.1236 15.7099L80.0275 15.6679L80.3398 14.5663L80.4745 14.6443C80.6031 14.7187 80.749 14.7586 80.8978 14.76L80.9058 14.7601C81.055 14.7713 81.2041 14.7372 81.3332 14.6621C81.4596 14.5537 81.5571 14.4159 81.6171 14.2609L81.6198 14.2539L81.8628 13.7276L79.3936 8.292H80.7588L82.4646 12.2325L84.1245 8.28ZM84.2854 8.52L82.468 12.8475L80.5998 8.532H79.7676L82.1281 13.7284L81.8411 14.3507C81.7652 14.5448 81.6417 14.717 81.4818 14.8516L81.4744 14.8578L81.4661 14.8628C81.2934 14.9663 81.0927 15.0142 80.8916 15C80.7536 14.9982 80.6176 14.9706 80.4907 14.9191L80.3178 15.5291C80.5024 15.5969 80.6975 15.6331 80.8948 15.636C81.246 15.6203 81.5837 15.4969 81.8615 15.2828C82.1402 15.0681 82.3449 14.7725 82.4473 14.4371L82.4496 14.4298L85.1172 8.52H84.2854ZM86.2334 8.28H91.715V15.72H90.5438V9.408H87.4046V15.72H86.2334V8.28ZM86.4749 8.52V15.48H87.1631V9.168H90.7853V15.48H91.4736V8.52H86.4749ZM93.1277 8.28H94.2989V11.364H97.6796V8.28H98.8508V15.72H97.6796V12.468H94.2989V15.72H93.1277V8.28ZM93.3692 8.52V15.48H94.0574V12.228H97.9211V15.48H98.6093V8.52H97.9211V11.604H94.0574V8.52H93.3692ZM59.7784 9.85098C60.3238 9.31123 61.0621 9.0082 61.8317 9.0082C62.6013 9.0082 63.3396 9.31123 63.885 9.85098L63.8893 9.85528C64.4253 10.4425 64.7221 11.2071 64.7221 12C64.7221 12.7929 64.4252 13.5574 63.8892 14.1446L63.8851 14.1491C63.3397 14.6889 62.6013 14.9918 61.8317 14.9918C61.0621 14.9918 60.3238 14.6888 59.7784 14.149L59.8636 14.064L59.7742 14.1446C59.2382 13.5574 58.9413 12.7929 58.9413 12C58.9413 11.2071 59.2382 10.4426 59.7742 9.85538L59.7784 9.85098ZM59.951 13.9811C60.4509 14.4747 61.127 14.7518 61.8317 14.7518C62.5364 14.7518 63.2125 14.4747 63.7124 13.9811C64.2068 13.4383 64.4806 12.7322 64.4806 12C64.4806 11.2678 64.2068 10.5617 63.7124 10.0189C63.2125 9.52528 62.5364 9.2482 61.8317 9.2482C61.127 9.2482 60.4509 9.52528 59.951 10.0189C59.4566 10.5617 59.1828 11.2678 59.1828 12C59.1828 12.7322 59.4566 13.4383 59.951 13.9811ZM101.615 9.85098C102.16 9.31123 102.899 9.0082 103.668 9.0082C104.438 9.0082 105.176 9.31123 105.722 9.85098L105.726 9.85528C106.262 10.4425 106.559 11.2071 106.559 12C106.559 12.7929 106.262 13.5574 105.726 14.1446L105.722 14.1491C105.176 14.6889 104.438 14.9918 103.668 14.9918C102.899 14.9918 102.16 14.6888 101.615 14.149L101.7 14.064L101.611 14.1446C101.075 13.5574 100.778 12.7929 100.778 12C100.778 11.2071 101.075 10.4426 101.611 9.85538L101.615 9.85098ZM101.788 13.9811C102.288 14.4747 102.964 14.7518 103.668 14.7518C104.373 14.7518 105.049 14.4747 105.549 13.9811C106.043 13.4383 106.317 12.7323 106.317 12C106.317 11.2678 106.043 10.5617 105.549 10.0189C105.049 9.52528 104.373 9.2482 103.668 9.2482C102.964 9.2482 102.288 9.52528 101.788 10.0189C101.293 10.5617 101.019 11.2678 101.019 12C101.019 12.7323 101.293 13.4383 101.788 13.9811ZM113.893 9.132C114.063 9.12724 114.231 9.15944 114.387 9.22633C114.542 9.29309 114.68 9.3928 114.793 9.51844C114.904 9.63232 114.991 9.76714 115.048 9.91494C115.106 10.0637 115.134 10.2225 115.129 10.3819C115.124 10.5414 115.086 10.6982 115.019 10.843C114.953 10.9862 114.858 11.1148 114.741 11.2212C114.623 11.3478 114.479 11.4475 114.318 11.5136C114.157 11.58 113.983 11.6109 113.808 11.604H111.997L112.05 9.132H113.893ZM114.291 9.44658C114.167 9.39343 114.033 9.36795 113.899 9.37195L113.895 9.372H112.287L112.244 11.364H113.816C113.956 11.3698 114.096 11.3453 114.226 11.2918C114.355 11.2384 114.472 11.1575 114.567 11.0548L114.571 11.0508L114.575 11.0471C114.67 10.9616 114.746 10.858 114.8 10.7424C114.854 10.6268 114.883 10.5017 114.887 10.3744C114.891 10.2472 114.869 10.1205 114.823 10.0018C114.777 9.88311 114.707 9.77493 114.618 9.68369L114.614 9.67958C114.524 9.57933 114.414 9.49973 114.291 9.44658ZM52.4019 9.168H55.5773V14.88H51.6203L51.731 14.6979C52.223 13.8889 52.457 12.9507 52.4021 12.0069L52.4017 12L52.4019 9.168ZM52.6433 9.408V11.9966C52.6963 12.9175 52.4876 13.8333 52.0432 14.64H55.3359V9.408H52.6433ZM112.038 12.204H113.992C114.344 12.204 114.682 12.3431 114.931 12.5906C115.18 12.8382 115.32 13.1739 115.32 13.524L115.32 13.5257C115.315 13.8602 115.183 14.1803 114.95 14.4215C114.83 14.5556 114.682 14.6619 114.516 14.7328C114.35 14.8039 114.17 14.8377 113.99 14.832H111.998L112.038 12.204ZM112.275 12.444L112.243 14.592H113.996C114.142 14.5969 114.287 14.5697 114.42 14.5124C114.554 14.4551 114.674 14.3691 114.771 14.2605L114.774 14.2566C114.965 14.0593 115.074 13.7972 115.078 13.5231C115.078 13.237 114.964 12.9627 114.76 12.7603C114.556 12.5578 114.28 12.444 113.992 12.444H112.275Z" fill="#0577EE"/>
<path d="M12.7326 39.2381L27.524 23.9906L12.745 8.77045C12.3502 9.00741 12.106 9.55606 12.106 10.2742V37.7489C12.1113 38.4671 12.3467 38.9756 12.7326 39.2381Z" fill="#0577EE"/>
<path d="M28.0539 23.5695L32.4598 19.0272L14.5175 8.88527C14.2153 8.70431 13.8722 8.60872 13.5226 8.6082L28.0521 23.5677L28.0539 23.5695Z" fill="#0577EE"/>
<path d="M28.0539 24.4135L13.4784 39.4386C13.8442 39.4449 14.2046 39.3465 14.5192 39.1543L32.497 28.985L28.0539 24.4135Z" fill="#0577EE"/>
<path d="M38.9597 22.7074L32.989 19.3261L28.4627 23.9924L33.0226 28.6879L38.958 25.3158C40.2201 24.5994 40.22 23.4201 38.9597 22.7074Z" fill="#0577EE"/>
</svg>
