<svg width="163" height="48" viewBox="0 0 163 48" fill="none" xmlns="http://www.w3.org/2000/svg">
<path d="M156.963 0.96C158.308 0.96 159.598 1.491 160.549 2.43618C161.5 3.38137 162.034 4.66331 162.034 6V42C162.034 43.3367 161.5 44.6186 160.549 45.5638C159.598 46.509 158.308 47.04 156.963 47.04H6.03704C4.69209 47.04 3.40224 46.509 2.45122 45.5638C1.5002 44.6186 0.965926 43.3367 0.965926 42V6C0.965926 4.66331 1.5002 3.38137 2.45122 2.43618C3.40224 1.491 4.69209 0.96 6.03704 0.96H156.963ZM156.963 0H6.03704C4.43591 0 2.90037 0.632141 1.76821 1.75736C0.636043 2.88258 0 4.4087 0 6V42C0 43.5913 0.636043 45.1174 1.76821 46.2426C2.90037 47.3679 4.43591 48 6.03704 48H156.963C158.564 48 160.1 47.3679 161.232 46.2426C162.364 45.1174 163 43.5913 163 42V6C163 4.4087 162.364 2.88258 161.232 1.75736C160.1 0.632141 158.564 0 156.963 0Z" fill="#0577EE"/>
<path d="M38.7734 23.1756C38.74 19.4905 41.8093 17.6977 41.9497 17.6143C40.2114 15.0954 37.5171 14.7513 36.5703 14.7238C34.3074 14.4871 32.1124 16.0696 30.9597 16.0696C29.7839 16.0696 28.0088 14.7467 26.0957 14.7856C23.6338 14.8233 21.3306 16.2399 20.0674 18.4398C17.4606 22.9252 19.4048 29.5167 21.9024 33.1423C23.1517 34.918 24.6116 36.9006 26.5225 36.8308C28.3919 36.7542 29.0902 35.6463 31.3462 35.6463C33.5815 35.6463 34.2372 36.8308 36.186 36.7862C38.1924 36.7542 39.4556 35.0026 40.6612 33.2109C42.105 31.1757 42.6848 29.1714 42.7078 29.0685C42.6606 29.0525 38.8113 27.5924 38.7734 23.1756Z" fill="#0577EE"/>
<path d="M35.092 12.3387C36.0975 11.089 36.7854 9.38884 36.5945 7.6635C35.1392 7.72753 33.3192 8.66394 32.2712 9.8862C31.3439 10.9633 30.5156 12.7286 30.7296 14.3888C32.3644 14.51 34.0428 13.569 35.092 12.3387Z" fill="#0577EE"/>
<path d="M65.8276 36.5757H63.215L61.7839 32.1063H56.8094L55.4462 36.5757H52.9026L57.831 21.3598H60.875L65.8276 36.5757ZM61.3525 30.2311L60.0582 26.2579C59.9213 25.852 59.6648 24.8962 59.2863 23.3915H59.2403C59.0896 24.0387 58.8468 24.9945 58.5132 26.2579L57.242 30.2311H61.3525Z" fill="#0577EE"/>
<path d="M78.5016 30.9549C78.5016 32.8209 77.9942 34.2958 76.9795 35.3786C76.0707 36.3424 74.9421 36.8238 73.595 36.8238C72.1409 36.8238 71.0963 36.3047 70.4601 35.2665H70.4141V41.0463H67.9614V29.2158C67.9614 28.0427 67.9303 26.8388 67.8705 25.6039H70.0275L70.1644 27.343H70.2104C71.0284 26.0327 72.2697 25.3787 73.9355 25.3787C75.2378 25.3787 76.325 25.8898 77.1947 26.9131C78.0667 27.9375 78.5016 29.2844 78.5016 30.9549ZM76.0028 31.0441C76.0028 29.9762 75.7613 29.0958 75.2758 28.4029C74.7454 27.6803 74.0333 27.319 73.1406 27.319C72.5355 27.319 71.9856 27.5202 71.4943 27.917C71.0019 28.3171 70.6798 28.8397 70.5291 29.4868C70.4532 29.7887 70.4152 30.0356 70.4152 30.23V32.0594C70.4152 32.8575 70.6614 33.5309 71.1538 34.0809C71.6462 34.6308 72.2858 34.9052 73.0727 34.9052C73.9965 34.9052 74.7155 34.5508 75.2298 33.8442C75.7451 33.1364 76.0028 32.2035 76.0028 31.0441Z" fill="#0577EE"/>
<path d="M91.199 30.9549C91.199 32.8209 90.6917 34.2958 89.6759 35.3786C88.7682 36.3424 87.6396 36.8238 86.2925 36.8238C84.8383 36.8238 83.7937 36.3047 83.1587 35.2665H83.1127V41.0463H80.66V29.2158C80.66 28.0427 80.6289 26.8388 80.5691 25.6039H82.7261L82.863 27.343H82.9091C83.7259 26.0327 84.9672 25.3787 86.6341 25.3787C87.9353 25.3787 89.0224 25.8898 89.8944 26.9131C90.763 27.9375 91.199 29.2844 91.199 30.9549ZM88.7003 31.0441C88.7003 29.9762 88.4576 29.0958 87.9721 28.4029C87.4417 27.6803 86.7319 27.319 85.838 27.319C85.2318 27.319 84.683 27.5202 84.1906 27.917C83.6983 28.3171 83.3773 28.8397 83.2266 29.4868C83.1518 29.7887 83.1127 30.0356 83.1127 30.23V32.0594C83.1127 32.8575 83.3589 33.5309 83.849 34.0809C84.3413 34.6297 84.981 34.9052 85.7702 34.9052C86.694 34.9052 87.413 34.5508 87.9272 33.8442C88.4426 33.1364 88.7003 32.2035 88.7003 31.0441Z" fill="#0577EE"/>
<path d="M105.395 32.3087C105.395 33.603 104.943 34.656 104.036 35.469C103.038 36.3574 101.65 36.801 99.8653 36.801C98.2179 36.801 96.8972 36.4854 95.8975 35.8531L96.4658 33.8214C97.5426 34.4685 98.7241 34.7932 100.011 34.7932C100.935 34.7932 101.654 34.5851 102.171 34.1712C102.685 33.7573 102.942 33.2017 102.942 32.5088C102.942 31.8914 102.73 31.3711 102.305 30.9492C101.883 30.5273 101.178 30.1352 100.193 29.7727C97.5127 28.7791 96.1736 27.3236 96.1736 25.4096C96.1736 24.1588 96.6429 23.1332 97.5828 22.3351C98.5193 21.5359 99.7686 21.1369 101.331 21.1369C102.724 21.1369 103.881 21.3781 104.805 21.8595L104.192 23.8466C103.329 23.3801 102.354 23.1469 101.262 23.1469C100.399 23.1469 99.7249 23.3584 99.2418 23.7792C98.8334 24.1553 98.6286 24.6138 98.6286 25.1569C98.6286 25.7583 98.8621 26.2557 99.3315 26.6467C99.7399 27.008 100.482 27.3991 101.559 27.821C102.876 28.3481 103.843 28.9644 104.466 29.671C105.086 30.3753 105.395 31.2568 105.395 32.3087Z" fill="#0577EE"/>
<path d="M113.505 27.4334H110.801V32.7603C110.801 34.1152 111.277 34.7921 112.232 34.7921C112.671 34.7921 113.034 34.7544 113.322 34.6789L113.39 36.53C112.906 36.7095 112.27 36.7998 111.482 36.7998C110.513 36.7998 109.756 36.506 109.21 35.9194C108.666 35.3318 108.392 34.3462 108.392 32.9616V27.4311H106.781V25.6017H108.392V23.5928L110.801 22.8702V25.6017H113.505V27.4334Z" fill="#0577EE"/>
<path d="M125.703 30.9996C125.703 32.6861 125.217 34.0707 124.248 35.1535C123.233 36.2683 121.884 36.8239 120.204 36.8239C118.584 36.8239 117.294 36.29 116.332 35.2221C115.371 34.1542 114.89 32.8061 114.89 31.1814C114.89 29.4812 115.384 28.0886 116.377 27.0058C117.368 25.9219 118.705 25.38 120.385 25.38C122.005 25.38 123.309 25.9139 124.292 26.983C125.233 28.02 125.703 29.3589 125.703 30.9996ZM123.158 31.0785C123.158 30.0666 122.94 29.1988 122.5 28.4751C121.986 27.5993 121.25 27.1625 120.298 27.1625C119.312 27.1625 118.563 27.6004 118.049 28.4751C117.608 29.2 117.391 30.0815 117.391 31.1243C117.391 32.1361 117.608 33.0039 118.049 33.7266C118.579 34.6024 119.32 35.0391 120.276 35.0391C121.213 35.0391 121.948 34.5932 122.478 33.7037C122.93 32.9662 123.158 32.0893 123.158 31.0785Z" fill="#0577EE"/>
<path d="M133.675 27.7478C133.432 27.7032 133.173 27.6803 132.902 27.6803C132.039 27.6803 131.372 28.0039 130.902 28.6522C130.494 29.2238 130.289 29.9464 130.289 30.8188V36.5757H127.838L127.861 29.0592C127.861 27.7946 127.83 26.6433 127.769 25.6051H129.905L129.995 27.7043H130.063C130.321 26.9828 130.73 26.402 131.289 25.9664C131.835 25.5742 132.425 25.3787 133.062 25.3787C133.288 25.3787 133.493 25.3947 133.675 25.4233V27.7478Z" fill="#0577EE"/>
<path d="M144.644 30.5708C144.644 31.0076 144.615 31.3757 144.554 31.6764H137.196C137.225 32.7603 137.581 33.5893 138.264 34.161C138.884 34.6721 139.686 34.9282 140.671 34.9282C141.76 34.9282 142.754 34.7555 143.648 34.4091L144.032 36.1013C142.988 36.554 141.754 36.7793 140.331 36.7793C138.619 36.7793 137.276 36.2785 136.298 35.278C135.322 34.2776 134.833 32.9341 134.833 31.2488C134.833 29.5944 135.288 28.2166 136.198 27.1178C137.15 25.9447 138.438 25.3582 140.057 25.3582C141.648 25.3582 142.853 25.9447 143.671 27.1178C144.319 28.0497 144.644 29.2022 144.644 30.5708ZM142.305 29.9385C142.321 29.2159 142.162 28.5916 141.829 28.0645C141.405 27.3865 140.752 27.0481 139.875 27.0481C139.073 27.0481 138.42 27.3785 137.922 28.0417C137.514 28.5688 137.271 29.201 137.196 29.9374H142.305V29.9385Z" fill="#0577EE"/>
<path d="M61.6956 17.6414H60.4198V15.75H55.3219V17.6414H54.0248L53.9823 14.6828H54.6043C54.9126 14.3869 55.1589 13.9572 55.3432 13.3937C55.5274 12.8266 55.6462 12.1856 55.6993 11.4706L55.9013 8.0576H60.7813V14.6828H61.7647L61.6956 17.6414ZM56.1246 14.6828H59.4417V9.13538H57.1824L57.0549 11.3015C56.9592 12.7491 56.6491 13.8762 56.1246 14.6828Z" fill="#0577EE"/>
<path d="M62.9523 12.8389C62.9523 12.2789 63.0639 11.7752 63.2872 11.3279C63.5104 10.8771 63.8241 10.5319 64.2281 10.2924C64.6321 10.0494 65.0963 9.92787 65.6208 9.92787C66.3969 9.92787 67.026 10.1762 67.5079 10.6728C67.9935 11.1694 68.2557 11.8281 68.2947 12.6487L68.3 12.9499C68.3 13.5134 68.1901 14.0171 67.9704 14.4609C67.7542 14.9047 67.4424 15.2481 67.0348 15.4911C66.6308 15.7341 66.163 15.8557 65.6315 15.8557C64.8199 15.8557 64.1696 15.588 63.6805 15.0526C63.195 14.5137 62.9523 13.797 62.9523 12.9023V12.8389ZM64.244 12.9499C64.244 13.5381 64.3663 13.9995 64.6108 14.3341C64.8553 14.6652 65.1956 14.8307 65.6315 14.8307C66.0674 14.8307 66.4058 14.6616 66.6468 14.3235C66.8913 13.9854 67.0136 13.4905 67.0136 12.8389C67.0136 12.2613 66.8878 11.8034 66.6361 11.4653C66.3881 11.1272 66.0496 10.9581 65.6208 10.9581C65.1991 10.9581 64.8642 11.1254 64.6161 11.46C64.3681 11.7911 64.244 12.2877 64.244 12.9499Z" fill="#0577EE"/>
<path d="M72.2997 14.8307C72.6221 14.8307 72.8897 14.7374 73.1023 14.5507C73.315 14.364 73.4284 14.1333 73.4426 13.8586H74.6599C74.6457 14.2143 74.5341 14.5472 74.325 14.8571C74.1159 15.1636 73.8324 15.4066 73.4745 15.5862C73.1165 15.7658 72.7302 15.8557 72.3156 15.8557C71.5111 15.8557 70.8732 15.5968 70.4019 15.079C69.9306 14.5613 69.6949 13.8463 69.6949 12.934V12.8019C69.6949 11.932 69.9288 11.2363 70.3966 10.7151C70.8644 10.1903 71.5023 9.92787 72.3103 9.92787C72.9943 9.92787 73.5506 10.1269 73.9795 10.5249C74.4118 10.9194 74.6386 11.4389 74.6599 12.0834H73.4426C73.4284 11.7559 73.315 11.4864 73.1023 11.2751C72.8933 11.0638 72.6257 10.9581 72.2997 10.9581C71.8815 10.9581 71.559 11.1096 71.3322 11.4125C71.1054 11.7118 70.9902 12.168 70.9866 12.7808V12.9869C70.9866 13.6068 71.0983 14.0699 71.3215 14.3764C71.5483 14.6793 71.8744 14.8307 72.2997 14.8307Z" fill="#0577EE"/>
<path d="M80.7061 11.0532H78.8403V15.75H77.5485V11.0532H75.7039V10.0335H80.7061V11.0532Z" fill="#0577EE"/>
<path d="M84.1901 13.9114L85.3596 10.0335H86.7364L84.4506 16.6164C84.0998 17.578 83.5044 18.0588 82.6645 18.0588C82.4767 18.0588 82.2694 18.0271 82.0425 17.9637V16.9704L82.2871 16.9863C82.6131 16.9863 82.8576 16.9264 83.0207 16.8066C83.1872 16.6904 83.3183 16.4932 83.414 16.2149L83.6001 15.7236L81.5801 10.0335H82.9728L84.1901 13.9114Z" fill="#0577EE"/>
<path d="M92.9049 15.75H91.6132V11.069H89.3699V15.75H88.0782V10.0335H92.9049V15.75Z" fill="#0577EE"/>
<path d="M99.6954 15.75H98.4037V13.4412H96.1657V15.75H94.8739V10.0335H96.1657V12.4163H98.4037V10.0335H99.6954V15.75Z" fill="#0577EE"/>
<path d="M101.377 12.8389C101.377 12.2789 101.489 11.7752 101.712 11.3279C101.936 10.8771 102.249 10.5319 102.653 10.2924C103.057 10.0494 103.521 9.92787 104.046 9.92787C104.822 9.92787 105.451 10.1762 105.933 10.6728C106.419 11.1694 106.681 11.8281 106.72 12.6487L106.725 12.9499C106.725 13.5134 106.615 14.0171 106.396 14.4609C106.179 14.9047 105.867 15.2481 105.46 15.4911C105.056 15.7341 104.588 15.8557 104.057 15.8557C103.245 15.8557 102.595 15.588 102.106 15.0526C101.62 14.5137 101.377 13.797 101.377 12.9023V12.8389ZM102.669 12.9499C102.669 13.5381 102.791 13.9995 103.036 14.3341C103.28 14.6652 103.621 14.8307 104.057 14.8307C104.492 14.8307 104.831 14.6616 105.072 14.3235C105.316 13.9854 105.439 13.4905 105.439 12.8389C105.439 12.2613 105.313 11.8034 105.061 11.4653C104.813 11.1272 104.475 10.9581 104.046 10.9581C103.624 10.9581 103.289 11.1254 103.041 11.46C102.793 11.7911 102.669 12.2877 102.669 12.9499Z" fill="#0577EE"/>
<path d="M111.716 15.75V10.0335H114.049C114.836 10.0335 115.435 10.1709 115.846 10.4456C116.257 10.7168 116.463 11.1078 116.463 11.6185C116.463 11.8827 116.379 12.1204 116.213 12.3317C116.05 12.5395 115.807 12.6998 115.485 12.8125C115.86 12.89 116.158 13.0467 116.378 13.2827C116.597 13.5187 116.707 13.797 116.707 14.1175C116.707 14.6493 116.509 15.0544 116.112 15.3326C115.718 15.6109 115.151 15.75 114.411 15.75H111.716ZM113.007 13.3144V14.7356H114.421C115.084 14.7356 115.415 14.4996 115.415 14.0277C115.415 13.5522 115.079 13.3144 114.405 13.3144H113.007ZM113.007 12.3951H114.071C114.804 12.3951 115.171 12.1803 115.171 11.7506C115.171 11.2997 114.824 11.0673 114.129 11.0532H113.007V12.3951Z" fill="#0577EE"/>
</svg>
