<svg width="56" height="44" viewBox="0 0 56 44" fill="none" xmlns="http://www.w3.org/2000/svg">
<g opacity="0.75">
<g clip-path="url(#clip0_5_309)">
<path d="M-9.03369 0H65.0334V44H-9.03369V0Z" fill="#FF0000"/>
<path d="M24.6572 19.0132C23.8293 18.5041 22.9513 18.0818 22.0482 17.7341C21.2705 18.8766 20.8189 20.2427 20.8189 21.7205C20.8189 22.4532 20.9318 23.1611 21.1451 23.8318C21.5213 22.9749 21.998 22.1428 22.575 21.348C23.1779 20.4944 23.8764 19.7112 24.6572 19.0132ZM22.4495 17.2125C23.428 17.5478 24.3686 17.9825 25.2718 18.4916C25.4725 18.3178 25.6857 18.1687 25.8864 18.0197C24.9331 17.4981 23.9171 17.0759 22.876 16.753C22.7255 16.902 22.575 17.0511 22.4495 17.2125ZM23.3276 16.3308C24.4565 16.6288 25.5352 17.0386 26.5511 17.5726C26.7895 17.4236 27.0278 17.287 27.2536 17.1504C26.1749 16.6039 25.0334 16.2066 23.8544 15.9209C23.6682 16.0436 23.492 16.1807 23.3276 16.3308ZM24.3937 15.5856C25.6355 15.834 26.8396 16.2314 27.9686 16.7778C29.1099 16.2314 30.3141 15.834 31.5433 15.5856C30.5023 14.9771 29.273 14.6294 27.9686 14.6294C26.6641 14.6294 25.4473 14.9771 24.3937 15.5856ZM32.0826 15.9334C30.9055 16.2065 29.7647 16.6149 28.6835 17.1504C28.9204 17.2866 29.1546 17.4274 29.3859 17.5726C30.4144 17.0386 31.4931 16.6288 32.6095 16.3308C32.4464 16.1817 32.2708 16.0451 32.0827 15.9333L32.0826 15.9334ZM33.061 16.7654C32.02 17.0759 31.0165 17.4981 30.0507 18.0197C30.265 18.17 30.4742 18.3274 30.6779 18.4916C31.5684 17.9825 32.5092 17.5478 33.4875 17.2125C33.3621 17.0511 33.2241 16.902 33.061 16.7654ZM33.8889 17.7465C32.9834 18.083 32.1137 18.5073 31.2925 19.0132C32.0576 19.6963 32.7474 20.4787 33.3746 21.348C33.93 22.129 34.4087 22.9607 34.8045 23.8318C35.0052 23.1487 35.1181 22.4532 35.1181 21.7205C35.1181 20.2427 34.6665 18.8765 33.8889 17.7465ZM33.2743 22.6147C32.5217 21.4101 31.6186 20.342 30.6151 19.4355L29.9378 19.9198C31.6311 21.4846 32.9983 23.4468 33.8638 25.7318C34.0645 25.4338 34.2526 25.1233 34.4031 24.8128C34.0895 24.0677 33.7133 23.335 33.2743 22.6147ZM29.2981 19.3858C29.5239 19.2244 29.7497 19.0629 29.988 18.9139C29.7873 18.7401 29.574 18.5786 29.3608 18.4171L28.6458 18.8766H28.6584C28.8717 19.0381 29.0849 19.2119 29.2981 19.3858V19.3858ZM27.9686 18.3923L28.6835 17.9576L27.9686 17.523C27.7302 17.6596 27.5045 17.8086 27.2661 17.9576C27.5045 18.0942 27.7302 18.2432 27.9686 18.3923ZM27.2912 18.8766C27.0529 18.7151 26.8271 18.5661 26.5888 18.4171L25.9491 18.9015L26.639 19.3734C26.851 19.2009 27.0685 19.0353 27.2912 18.8766ZM27.9686 19.3734C27.7553 19.5348 27.5421 19.7087 27.3163 19.895C27.5421 20.0688 27.7553 20.2551 27.9686 20.4413C28.1818 20.2551 28.395 20.0688 28.6208 19.895C28.4075 19.7211 28.1943 19.5348 27.9686 19.3734ZM27.9686 21.6957C26.9884 22.7422 26.157 23.9163 25.4975 25.1854C25.0334 26.0547 24.6697 26.9613 24.3937 27.8679C25.4474 28.4516 26.664 28.7993 27.9686 28.7993C29.2731 28.7993 30.4897 28.4515 31.5433 27.8679C31.2674 26.9613 30.9036 26.0547 30.4395 25.1853C29.7622 23.8815 28.9343 22.714 27.9686 21.6957ZM23.8293 26.4025C24.6446 24.3409 25.8488 22.5402 27.3288 21.0499C27.1155 20.8512 26.9024 20.6649 26.6766 20.4663C24.9583 22.118 23.5784 24.167 22.738 26.539C22.9744 26.7979 23.2301 27.0387 23.5031 27.2594C23.6036 26.9737 23.7164 26.6881 23.8293 26.4025ZM28.6082 21.0499C30.0883 22.5402 31.2924 24.3409 32.1203 26.4025C32.2332 26.6881 32.3336 26.9737 32.4339 27.2594C32.7098 27.0358 32.9732 26.7998 33.2116 26.5391C32.3586 24.167 30.9789 22.118 29.2604 20.4663L28.6082 21.0499V21.0499ZM22.0733 25.7318C22.9387 23.4468 24.3059 21.497 26.0118 19.9323C25.787 19.7597 25.557 19.594 25.3219 19.4355C24.3185 20.3544 23.4154 21.4225 22.6628 22.6271C22.2297 23.3255 21.8523 24.0563 21.534 24.8128C21.6844 25.1357 21.8725 25.4338 22.0733 25.7318ZM28.0062 14.0581C32.4213 14.0581 36.0212 17.6223 36.0212 21.9937C36.0212 26.3651 32.4213 29.9294 28.0062 29.9294C23.5911 29.9294 19.9911 26.3652 19.9911 21.9937C19.9911 17.6223 23.591 14.0581 28.0062 14.0581ZM31.5433 12.3194C31.3176 12.5803 31.0667 12.9156 30.8159 13.4495C30.7531 13.313 30.7531 13.1516 30.7907 12.9777C30.8535 12.4064 31.0166 12.0587 31.3176 11.5743C31.4179 11.4005 31.5183 11.2514 31.5684 11.0652C31.7565 10.5064 31.719 9.76121 31.305 9.17755C31.3677 9.83572 31.167 10.3821 30.9413 10.7174C30.9036 10.7795 30.866 10.8168 30.8159 10.8665C30.5775 11.1024 30.3141 11.3384 29.9754 11.8848C29.7873 12.1828 29.5992 12.543 29.4235 13.1142C29.3483 12.9901 29.3232 12.8411 29.3358 12.6672C29.3106 12.0835 29.411 11.7234 29.6243 11.1894C29.6995 11.0031 29.7748 10.8416 29.7998 10.6429C29.8876 10.0716 29.7371 9.33896 29.2354 8.82973C29.3984 9.46311 29.2981 10.0344 29.1225 10.407C29.0849 10.469 29.0598 10.5187 29.0222 10.5684C28.8214 10.8416 28.6082 11.1148 28.3448 11.6985C28.2194 12.0338 28.0814 12.4188 28.0062 13.0025C27.9058 12.8907 27.8556 12.7417 27.8431 12.5678C27.7302 11.9966 27.7678 11.624 27.8933 11.0652C27.9435 10.8789 27.9936 10.705 27.9811 10.5063C27.9811 9.92262 27.7177 9.2272 27.1407 8.79248C27.4041 9.401 27.3916 9.98473 27.2786 10.3821C27.2536 10.4318 27.2285 10.4939 27.2034 10.5435C27.0529 10.854 26.8773 11.1521 26.7142 11.773C26.639 12.1208 26.5637 12.5306 26.5763 13.1143C26.4759 13.0149 26.4007 12.8783 26.3505 12.7168C26.1498 12.158 26.1247 11.7979 26.1749 11.2142C26.1875 11.0155 26.2 10.8416 26.1749 10.6554C26.0745 10.0716 25.6983 9.42586 25.0711 9.09058C25.4223 9.64938 25.4975 10.2331 25.4473 10.6305L25.4098 10.8168C25.3094 11.1397 25.1839 11.4625 25.1213 12.1083C25.0961 12.4561 25.0837 12.8659 25.1965 13.4496C25.0711 13.3626 24.9832 13.2385 24.908 13.0894C24.6195 12.5678 24.5443 12.2077 24.4941 11.6364C24.4815 11.4377 24.469 11.2639 24.3937 11.0776C24.2182 10.5187 23.7415 9.93509 23.0642 9.71149C23.5032 10.1959 23.6788 10.7547 23.6788 11.1645C23.6788 11.2266 23.6788 11.2887 23.6662 11.3508C23.6161 11.6861 23.5534 12.0338 23.591 12.6672C23.6286 13.0149 23.6788 13.4247 23.8795 13.9835C23.7415 13.9215 23.6286 13.8097 23.5282 13.6731C23.1646 13.2136 23.0391 12.8659 22.9011 12.3071C22.851 12.1083 22.8133 11.9469 22.713 11.7606C22.4495 11.2514 21.8851 10.7423 21.1828 10.6181C21.6844 11.0403 21.9479 11.5744 22.0231 11.9717C22.0356 12.0338 22.0356 12.0959 22.0356 12.158C22.0482 12.4933 22.0356 12.8411 22.1736 13.4744C22.2614 13.8097 22.3743 14.2071 22.6628 14.7163C22.5249 14.679 22.3994 14.5921 22.2739 14.4679C21.8349 14.0705 21.6468 13.7476 21.4336 13.2136C21.3583 13.0273 21.283 12.8659 21.1702 12.7044C20.8189 12.2449 20.1917 11.8352 19.4643 11.8227C20.0413 12.158 20.3799 12.6299 20.5179 13.0149L20.5556 13.2012C20.6183 13.5365 20.6559 13.8842 20.8942 14.4804C21.0322 14.8032 21.2203 15.1758 21.5841 15.6354C21.4335 15.6229 21.2956 15.5484 21.1577 15.449C20.6684 15.1261 20.4301 14.8281 20.1166 14.3437C20.0162 14.1699 19.9284 14.0209 19.7779 13.8842C19.364 13.4744 18.6741 13.164 17.9591 13.2633C18.5737 13.5117 18.9876 13.9339 19.1884 14.2941C19.2135 14.3437 19.2385 14.4059 19.2636 14.4679C19.3765 14.7784 19.4643 15.1137 19.7904 15.6725C19.9786 15.9706 20.2169 16.3059 20.6559 16.7157C20.5054 16.7157 20.3548 16.6661 20.2043 16.5916C19.665 16.3432 19.3891 16.0948 19.0127 15.6601C18.8748 15.5111 18.7619 15.3745 18.5989 15.2503C18.1222 14.915 17.3947 14.7163 16.7048 14.9274C17.357 15.0764 17.8337 15.4242 18.072 15.747C18.1222 15.7968 18.1473 15.8464 18.1724 15.9085C18.3354 16.2066 18.486 16.5294 18.8999 17.0138C19.1256 17.287 19.4141 17.5851 19.9033 17.9204C19.7653 17.9452 19.6148 17.9204 19.4392 17.8582C18.8748 17.7092 18.5612 17.4982 18.1222 17.1256C17.9717 17.0013 17.8337 16.8896 17.6581 16.7903C17.1313 16.5294 16.3787 16.4549 15.7265 16.7654C16.3912 16.8027 16.918 17.0883 17.2191 17.3616C17.2567 17.4112 17.2943 17.4485 17.3319 17.5106C17.5452 17.7713 17.7334 18.0694 18.2225 18.4916C18.486 18.7151 18.8246 18.9635 19.3639 19.2244C19.226 19.274 19.063 19.274 18.8999 19.2368C18.3103 19.1746 17.9717 19.0132 17.4699 18.7151C17.2944 18.6158 17.1438 18.5164 16.9557 18.4668C16.3913 18.2805 15.6512 18.3177 15.0616 18.7276C15.7139 18.6655 16.2783 18.8642 16.617 19.0877C16.6672 19.125 16.7173 19.1623 16.755 19.2119C17.0058 19.4479 17.2442 19.7087 17.7835 20.044C18.0845 20.2303 18.4609 20.429 19.0253 20.5904C18.8999 20.6649 18.7494 20.6898 18.5737 20.6898C17.9842 20.7023 17.6205 20.6028 17.0811 20.3917C16.893 20.3172 16.7299 20.2427 16.5292 20.2179C15.9522 20.1309 15.2122 20.2799 14.6979 20.7767C15.3376 20.6153 15.9272 20.7146 16.2909 20.8884C16.3536 20.9257 16.4038 20.9506 16.4539 20.9878C16.7299 21.1865 17.0058 21.3977 17.6079 21.6584C17.934 21.7826 18.3229 21.9192 18.9124 21.9937C18.7995 22.0931 18.649 22.1427 18.486 22.1552C17.8964 22.2794 17.5327 22.2297 16.9557 22.1055C16.7675 22.0558 16.5919 22.0186 16.3912 22.0186C15.8017 22.0186 15.0993 22.2794 14.6729 22.8506C15.2749 22.5899 15.8644 22.6022 16.2658 22.7141C16.3285 22.7389 16.3787 22.7637 16.4414 22.7886C16.7424 22.9376 17.056 23.1115 17.6832 23.2729C18.0219 23.3474 18.4358 23.4219 19.0253 23.4095C18.925 23.5089 18.787 23.5833 18.6239 23.633C18.072 23.8318 17.6958 23.8566 17.1188 23.8069C16.918 23.7944 16.7425 23.782 16.5418 23.8069C15.9648 23.9063 15.3125 24.2788 14.9739 24.9122C15.5257 24.552 16.1152 24.4775 16.5293 24.5272L16.7048 24.5644C17.0309 24.6763 17.357 24.788 18.0093 24.8501C18.3605 24.875 18.7744 24.8873 19.364 24.7756C19.2761 24.8998 19.1507 24.9868 19.0002 25.0612C18.486 25.3468 18.1096 25.4213 17.5327 25.471C17.3319 25.4958 17.1564 25.5083 16.9683 25.5704C16.4038 25.7442 15.8268 26.2162 15.5885 26.8867C16.0902 26.4521 16.6547 26.2907 17.0686 26.2782C17.1313 26.2782 17.194 26.2782 17.2567 26.2907C17.5828 26.3403 17.934 26.4025 18.5863 26.3652C18.9375 26.3403 19.3514 26.2782 19.9033 26.0796C19.8531 26.2162 19.7402 26.3279 19.5897 26.4273C19.1256 26.7874 18.7745 26.9116 18.21 27.0482C18.0219 27.0979 17.8463 27.1351 17.6706 27.2345C17.1438 27.4953 16.6421 28.0541 16.5167 28.7496C16.9306 28.2529 17.4699 27.992 17.8714 27.9175C17.934 27.9051 17.9968 27.9051 18.0595 27.9051C18.3981 27.8927 18.7619 27.9051 19.389 27.7685C19.7277 27.6816 20.1291 27.5698 20.6559 27.2842C20.6183 27.4208 20.5179 27.5574 20.3925 27.6692C19.9911 28.1039 19.665 28.2901 19.1256 28.5013C18.9501 28.5882 18.787 28.6503 18.6239 28.762C18.1473 29.1098 17.7334 29.7308 17.7208 30.451C18.0595 29.8797 18.5486 29.5444 18.9375 29.4078L19.113 29.3705C19.4517 29.3084 19.803 29.2712 20.4051 29.0353C20.7312 28.8986 21.1074 28.7124 21.5841 28.3646C21.559 28.5013 21.4963 28.6379 21.3833 28.7744C21.0573 29.2588 20.7688 29.4948 20.2671 29.8052C20.104 29.9046 19.9535 29.9915 19.803 30.1405C19.3891 30.5503 19.088 31.2334 19.1884 31.9412C19.4267 31.3327 19.8531 30.9229 20.2169 30.7242C20.2796 30.6993 20.3298 30.6746 20.3925 30.6497C20.7186 30.5503 21.0573 30.451 21.6092 30.1281C21.9102 29.9418 22.2489 29.7058 22.6628 29.2712C22.6754 29.4202 22.6251 29.5693 22.5374 29.7183C22.2865 30.2523 22.0356 30.5255 21.5966 30.8981C21.4461 31.0347 21.3082 31.1465 21.1952 31.3079C20.8566 31.7798 20.6559 32.5001 20.8692 33.1831C21.0071 32.5374 21.3583 32.0655 21.697 31.8295C21.7472 31.7922 21.7973 31.755 21.8475 31.7301C22.1485 31.5687 22.4746 31.4196 22.9764 31.0098C23.2398 30.7863 23.5408 30.5007 23.8795 30.0163C23.9046 30.1529 23.8795 30.3143 23.8293 30.4758C23.6662 31.0346 23.4656 31.3451 23.0767 31.7798C22.9513 31.9289 22.8384 32.0655 22.7506 32.2517C22.4872 32.7733 22.3994 33.506 22.713 34.1518C22.7631 33.4936 23.0391 32.972 23.3276 32.6864C23.3652 32.6367 23.4154 32.5995 23.4656 32.5622C23.7415 32.3511 24.03 32.1648 24.4565 31.6805C24.6822 31.4196 24.9331 31.0843 25.1965 30.5504C25.2467 30.687 25.2467 30.8484 25.2216 31.0098C25.1463 31.5936 24.9958 31.9289 24.6948 32.4256C24.5819 32.5994 24.4941 32.7485 24.4313 32.9348C24.2558 33.4936 24.2934 34.2387 24.7073 34.8224C24.6446 34.1642 24.8328 33.6054 25.0711 33.27C25.1087 33.2204 25.1463 33.1708 25.1839 33.1335C25.4223 32.8851 25.6857 32.6491 26.0369 32.1151C26.2124 31.8171 26.4132 31.4445 26.5763 30.8857C26.6515 31.0098 26.6766 31.1589 26.6766 31.3327C26.7016 31.9165 26.6014 32.2765 26.3755 32.8105C26.3003 32.9968 26.2376 33.1583 26.2 33.357C26.1121 33.9283 26.2627 34.661 26.7644 35.1702C26.6014 34.5368 26.7016 33.9531 26.8899 33.5929C26.9149 33.5309 26.94 33.4812 26.9776 33.4315C27.1783 33.1583 27.4041 32.8851 27.655 32.289C27.793 31.9661 27.9309 31.5811 28.0062 30.9974C28.094 31.1092 28.1441 31.2582 28.1692 31.4196C28.2821 32.0034 28.2445 32.3634 28.1065 32.9347C28.0563 33.121 28.0187 33.2949 28.0187 33.4936C28.0187 34.0773 28.2947 34.7727 28.8717 35.195C28.6082 34.5989 28.6082 34.0152 28.7337 33.6178C28.7463 33.5557 28.7713 33.506 28.7964 33.444C28.9469 33.1459 29.1225 32.8354 29.2856 32.2145C29.3608 31.8791 29.4361 31.4693 29.4235 30.8857C29.5364 30.985 29.5991 31.1216 29.6493 31.2831C29.8626 31.8295 29.8751 32.202 29.8374 32.7857C29.8124 32.972 29.7998 33.1459 29.8374 33.3446C29.9253 33.9283 30.3015 34.5741 30.9412 34.9093C30.59 34.3505 30.5023 33.7668 30.565 33.3694C30.565 33.3073 30.5775 33.2453 30.6026 33.1831C30.7029 32.8603 30.8284 32.5374 30.8911 31.8916C30.9036 31.5439 30.9161 31.1341 30.8159 30.5503C30.9287 30.6373 31.0291 30.7615 31.1043 30.9105C31.3928 31.4196 31.468 31.7922 31.5182 32.3635C31.5308 32.5622 31.5433 32.736 31.6061 32.9223C31.7942 33.4812 32.2583 34.0524 32.9482 34.2884C32.5092 33.7917 32.3336 33.2328 32.321 32.823C32.321 32.7609 32.321 32.6988 32.3336 32.6367C32.3837 32.3139 32.459 31.9661 32.4088 31.3203C32.3837 30.9726 32.321 30.5628 32.1328 30.0163C32.2583 30.0784 32.3712 30.1778 32.4715 30.3268C32.8352 30.7863 32.9732 31.134 33.1112 31.6929C33.1488 31.8791 33.199 32.053 33.2868 32.2269C33.5628 32.7485 34.1147 33.2453 34.8296 33.3694C34.3154 32.9596 34.0519 32.4256 33.9767 32.0281C33.9641 31.9661 33.9642 31.904 33.9642 31.8419C33.9642 31.5066 33.9767 31.1589 33.8387 30.5255C33.7509 30.1902 33.6255 29.7928 33.337 29.2712C33.4875 29.3084 33.6129 29.4078 33.7259 29.532C34.1649 29.9294 34.353 30.2523 34.5788 30.7863C34.654 30.9601 34.7167 31.1216 34.8421 31.2831C35.1934 31.755 35.8206 32.1648 36.5355 32.1772C35.9711 31.8419 35.6324 31.3576 35.4944 30.9726C35.4693 30.9105 35.4568 30.8608 35.4442 30.7988C35.3941 30.4634 35.3439 30.1157 35.1056 29.5196C34.9676 29.1967 34.792 28.8241 34.4283 28.3646C34.5788 28.377 34.7167 28.4391 34.8547 28.5509C35.3439 28.8738 35.5822 29.1594 35.8832 29.6562C35.9836 29.8177 36.084 29.9791 36.2219 30.1157C36.6358 30.5255 37.3257 30.8236 38.0407 30.7242C37.426 30.4882 37.0122 30.066 36.824 29.7058C36.7863 29.6438 36.7613 29.5941 36.7487 29.532C36.6358 29.2091 36.5355 28.8738 36.2093 28.3274C36.0212 28.0293 35.7829 27.694 35.3565 27.2842C35.4944 27.2842 35.645 27.3215 35.808 27.4084C36.3348 27.6567 36.6233 27.9051 36.9996 28.3398C37.125 28.4888 37.2379 28.6254 37.401 28.7372C37.8776 29.0849 38.6051 29.2712 39.2949 29.0725C38.6553 28.9235 38.1786 28.5758 37.9278 28.2404C37.8902 28.1908 37.8525 28.1411 37.8274 28.0914C37.6644 27.7934 37.5264 27.4705 37.1124 26.9737C36.8742 26.7129 36.5857 26.4149 36.0965 26.0796C36.247 26.0547 36.3975 26.0796 36.5606 26.1292C37.125 26.2907 37.4386 26.5017 37.8901 26.8744C38.0407 26.9986 38.1786 27.1103 38.3543 27.1972C38.881 27.458 39.6211 27.545 40.2733 27.2345C39.6086 27.1848 39.0943 26.9116 38.7933 26.626C38.7431 26.5887 38.7055 26.5391 38.6678 26.4894C38.4671 26.2162 38.2664 25.9306 37.7898 25.5083C37.5138 25.2848 37.1752 25.0364 36.6484 24.7756C36.7863 24.7259 36.9368 24.7259 37.1124 24.7508C37.6894 24.8253 38.0407 24.9743 38.5299 25.2848C38.7054 25.3841 38.856 25.471 39.0441 25.5332C39.6085 25.707 40.3611 25.6697 40.9506 25.2599C40.2859 25.322 39.734 25.1357 39.3953 24.8998L39.2448 24.788C39.0065 24.552 38.7681 24.2913 38.2163 23.9435C37.9153 23.7697 37.5514 23.571 36.9745 23.4095C37.0999 23.335 37.263 23.3101 37.426 23.3101C38.0281 23.2853 38.3919 23.3846 38.9186 23.6082C39.1068 23.6827 39.2699 23.7448 39.4706 23.782C40.0476 23.869 40.7876 23.72 41.3019 23.2232C40.6622 23.3846 40.0852 23.2853 39.7089 23.099C39.6587 23.0742 39.596 23.0494 39.5458 23.0121C39.2699 22.8134 38.994 22.6022 38.4045 22.3415C38.0783 22.2173 37.6769 22.0807 37.0874 21.9937C37.2003 21.9068 37.3508 21.8572 37.5264 21.8323C38.1034 21.7206 38.4797 21.7578 39.044 21.8944C39.2322 21.9441 39.4079 21.9813 39.6086 21.9813C40.1981 21.9813 40.9005 21.7081 41.3395 21.1493C40.7249 21.3977 40.1353 21.3977 39.7465 21.2734C39.6838 21.261 39.6211 21.2362 39.571 21.2113C39.2574 21.0623 38.9563 20.8884 38.3291 20.727C37.9779 20.6525 37.5766 20.578 36.9745 20.5904C37.0748 20.4787 37.2128 20.4166 37.3759 20.3669C37.9403 20.1557 38.3166 20.1433 38.8935 20.1806C39.0943 20.2054 39.2699 20.2179 39.4705 20.1806C40.0475 20.0937 40.6998 19.7211 41.0385 19.0877C40.4741 19.4355 39.8971 19.5224 39.4831 19.4727C39.4204 19.4603 39.3577 19.4479 39.295 19.423C38.9689 19.3237 38.6427 19.1995 38.003 19.1374C37.6518 19.1249 37.2253 19.1126 36.6483 19.2244C36.7237 19.1001 36.8491 19.0008 37.0122 18.9263C37.5264 18.6406 37.8902 18.5662 38.4671 18.5165C38.6679 18.504 38.8434 18.4916 39.0315 18.4295C39.596 18.2432 40.1855 17.7837 40.4113 17.1007C39.9221 17.5354 39.3577 17.7092 38.9438 17.7217C38.881 17.7217 38.8184 17.7217 38.7556 17.7092C38.4169 17.6596 38.0658 17.5851 37.426 17.6347C37.0748 17.6596 36.6609 17.7217 36.0965 17.9204C36.1592 17.7837 36.2721 17.672 36.4101 17.5726C36.8742 17.2125 37.2253 17.0759 37.7898 16.9393C37.9808 16.9059 38.1664 16.8475 38.3417 16.7654C38.856 16.4922 39.3702 15.9458 39.4956 15.2379C39.0692 15.747 38.5424 16.0079 38.1284 16.0824C38.0658 16.0948 38.003 16.0948 37.9403 16.0948C37.6017 16.0948 37.2504 16.0823 36.6233 16.219C36.2721 16.3059 35.8707 16.4301 35.3565 16.7157C35.3941 16.5667 35.4819 16.4425 35.6073 16.3307C36.0087 15.8961 36.3348 15.7098 36.8742 15.4863C37.0623 15.4118 37.2253 15.3497 37.3884 15.2255C37.8525 14.8778 38.2664 14.2568 38.279 13.549C37.9403 14.1078 37.4637 14.4431 37.0748 14.5797C37.0122 14.6045 36.9494 14.617 36.8867 14.6294C36.5481 14.6915 36.1968 14.7287 35.5947 14.9647C35.2811 15.1013 34.9049 15.2751 34.4282 15.6353C34.4408 15.4987 34.516 15.3497 34.6164 15.213C34.9425 14.7287 35.2435 14.4928 35.7327 14.1947C35.9083 14.0954 36.0588 13.996 36.1968 13.8594C36.6107 13.4496 36.9243 12.7666 36.824 12.0587C36.5731 12.6672 36.1467 13.077 35.7829 13.2757C35.7327 13.3006 35.67 13.3254 35.6199 13.3378C35.2937 13.4496 34.955 13.549 34.3906 13.8718C34.0895 14.0581 33.7509 14.2941 33.337 14.7163C33.337 14.5797 33.3872 14.4306 33.4624 14.2816C33.7133 13.7476 33.9642 13.4744 34.4031 13.0894C34.5537 12.9652 34.6916 12.8535 34.8171 12.692C35.1557 12.2201 35.3565 11.4998 35.1432 10.8168C34.9926 11.4502 34.6415 11.9221 34.3154 12.1704C34.2652 12.2077 34.215 12.2449 34.1523 12.2698C33.8513 12.4312 33.5252 12.5678 33.0359 12.9777C32.76 13.2136 32.459 13.4992 32.1328 13.9836C32.0952 13.847 32.1203 13.6856 32.1831 13.5241C32.3461 12.9653 32.5467 12.6548 32.9231 12.2078C33.0485 12.0587 33.1739 11.9344 33.2617 11.7482C33.5252 11.2266 33.6004 10.4939 33.2869 9.84811C33.2492 10.5063 32.9732 11.0155 32.6847 11.3135C32.6346 11.3632 32.5969 11.4004 32.5468 11.4378C32.2708 11.6365 31.9698 11.8352 31.5433 12.3194Z" fill="#FFFF00"/>
</g>
</g>
<defs>
<clipPath id="clip0_5_309">
<rect width="56" height="44" rx="8" fill="white"/>
</clipPath>
</defs>
</svg>
