<svg width="53" height="53" viewBox="0 0 53 53" fill="none" xmlns="http://www.w3.org/2000/svg">
<circle cx="26.5" cy="26.5" r="26.5" fill="#047BEF" fill-opacity="0.35"/>
<path d="M40.1637 40.1636C39.7292 40.5985 39.2745 41.0122 38.7997 41.4047C38.6991 41.4877 38.5968 41.5701 38.4968 41.6512C36.0229 43.614 33.1039 44.9379 29.9974 45.506C29.5532 45.5868 29.1034 45.6526 28.6479 45.7035C27.2273 45.8593 25.794 45.8593 24.3734 45.7035C23.9191 45.6538 23.4694 45.588 23.0244 45.506C19.918 44.9379 16.999 43.614 14.5251 41.6512C14.4233 41.5701 14.3209 41.4877 14.2222 41.4047C13.7477 41.0126 13.293 40.5989 12.8581 40.1636L10.7672 42.2551C11.2679 42.7567 11.7929 43.2336 12.3421 43.6858C12.4578 43.7815 12.5753 43.8766 12.6934 43.9699C15.5455 46.2342 18.9115 47.7612 22.4938 48.4159C23.0071 48.5091 23.526 48.5846 24.0505 48.6424C25.6885 48.8225 27.3413 48.8225 28.9792 48.6424C29.5042 48.5855 30.0229 48.5099 30.5353 48.4159C34.1178 47.761 37.4839 46.2341 40.3364 43.9699C40.4539 43.8766 40.5714 43.7815 40.6871 43.6858C41.2346 43.234 41.7596 42.7571 42.2619 42.2551L40.1637 40.1636Z" fill="white"/>
<path d="M38.2182 38.2187C37.8463 38.591 37.4562 38.946 37.048 39.2835C36.9626 39.3538 36.8748 39.4247 36.7875 39.4943C34.6666 41.1787 32.1633 42.3144 29.499 42.8009C29.1174 42.87 28.7315 42.9261 28.3415 42.9693C27.1236 43.1026 25.8948 43.1026 24.6769 42.9693C24.2864 42.9265 23.9006 42.8704 23.5194 42.8009C20.8551 42.3144 18.3517 41.1787 16.2308 39.4943C16.143 39.4247 16.0558 39.3538 15.9697 39.2835C15.5633 38.9474 15.172 38.5912 14.8001 38.2187L12.8546 40.1636C13.2886 40.5985 13.7433 41.0122 14.2186 41.4047C14.3192 41.4877 14.4215 41.5701 14.5215 41.6513C16.9954 43.6141 19.9144 44.9379 23.0209 45.506C23.4651 45.5868 23.9147 45.6526 24.3698 45.7035C25.7904 45.8594 27.2237 45.8594 28.6443 45.7035C29.099 45.6538 29.5488 45.588 29.9938 45.506C33.1003 44.9379 36.0193 43.6141 38.4932 41.6513C38.595 41.5701 38.6974 41.4877 38.7961 41.4047C39.2702 41.0126 39.7248 40.5989 40.1602 40.1636L38.2182 38.2187Z" fill="#3461B2"/>
<path d="M36.4114 36.4112C35.1169 37.7225 33.5749 38.7636 31.8748 39.4742C30.1748 40.1848 28.3505 40.5507 26.508 40.5507C24.6654 40.5507 22.8411 40.1848 21.1411 39.4742C19.441 38.7636 17.899 37.7225 16.6045 36.4112L14.7989 38.2175C15.1708 38.59 15.5621 38.9443 15.9685 39.2823C16.0545 39.3526 16.1418 39.4234 16.2296 39.4931C18.3505 41.1775 20.8538 42.3131 23.5181 42.7997C23.8997 42.8687 24.2856 42.9249 24.6757 42.9681C25.8936 43.1013 27.1223 43.1013 28.3402 42.9681C28.7311 42.9253 29.117 42.8691 29.4978 42.7997C32.1624 42.3137 34.6661 41.1784 36.7875 39.4943C36.8748 39.4247 36.9626 39.3538 37.048 39.2835C37.455 38.9471 37.8451 38.5922 38.2182 38.2187L36.4114 36.4112Z" fill="#DE554B"/>
<path d="M48.7625 25.6919C48.5632 20.0711 46.2377 14.7356 42.2559 10.7635L40.1638 12.855C43.6179 16.299 45.6352 20.9263 45.8078 25.8009C45.8163 26.0359 45.8199 26.2722 45.8199 26.509C45.8233 29.0454 45.3253 31.5575 44.3546 33.9008C43.3839 36.2441 41.9597 38.3725 40.1638 40.1636L42.2547 42.2551C44.3261 40.1894 45.9687 37.7347 47.0882 35.032C48.2076 32.3293 48.7818 29.4319 48.7776 26.5066C48.7776 26.2344 48.7726 25.9628 48.7625 25.6919ZM12.8545 12.855L10.7624 10.7628C6.77994 14.7349 4.45397 20.0707 4.25461 25.6919C4.24431 25.9632 4.24007 26.237 4.24007 26.509C4.23605 29.4344 4.81032 32.3317 5.92987 35.0344C7.04941 37.7371 8.69214 40.1919 10.7636 42.2576L12.8545 40.166C11.0586 38.3745 9.63442 36.2457 8.66395 33.9019C7.69347 31.5582 7.19582 29.0457 7.19959 26.509C7.19959 26.2724 7.20383 26.0363 7.21231 25.8009C7.38476 20.9266 9.40138 16.2995 12.8545 12.855Z" fill="#DB403E"/>
<path d="M45.8078 25.8009C45.6352 20.9262 43.6179 16.299 40.1638 12.855L38.2194 14.7999C41.1808 17.7536 42.9102 21.7215 43.0579 25.9015C43.0658 26.1038 43.0688 26.3061 43.0688 26.5072C43.0719 28.6826 42.645 30.8372 41.8126 32.8471C40.9801 34.857 39.7586 36.6825 38.2182 38.2187L40.1638 40.1636C41.9597 38.3725 43.3839 36.2441 44.3546 33.9008C45.3253 31.5575 45.8233 29.0454 45.8199 26.509C45.8199 26.2722 45.8163 26.0359 45.8078 25.8009ZM14.8001 14.7999L12.8545 12.855C9.40071 16.2992 7.38342 20.9263 7.21049 25.8009C7.20201 26.0359 7.19777 26.272 7.19777 26.509C7.19455 29.0454 7.69265 31.5575 8.66343 33.9008C9.63421 36.2442 11.0585 38.3725 12.8545 40.1636L14.8001 38.2187C13.2598 36.6828 12.0383 34.8576 11.2058 32.848C10.3732 30.8385 9.94611 28.6842 9.94892 26.509C9.94892 26.3061 9.95195 26.1038 9.95983 25.9033C10.1071 21.7223 11.8372 17.7535 14.8001 14.7999Z" fill="white"/>
<path d="M43.0579 25.9015C42.9101 21.7214 41.1805 17.7535 38.2188 14.7999L36.2878 16.7316C37.5884 18.0156 38.6233 19.5434 39.3334 21.2275C40.0434 22.9117 40.4146 24.7192 40.4259 26.5469C40.4371 28.3746 40.0882 30.1865 39.3989 31.8793C38.7097 33.5721 37.6937 35.1124 36.4089 36.4124L38.2158 38.2199C39.7561 36.684 40.9776 34.8588 41.8101 32.8492C42.6426 30.8397 43.0698 28.6854 43.067 26.5102C43.0694 26.3061 43.0664 26.1038 43.0579 25.9015ZM14.8001 14.7999C11.8377 17.753 10.1075 21.7212 9.95983 25.9015C9.95196 26.1038 9.94893 26.3061 9.94893 26.5072C9.94611 28.6824 10.3732 30.8366 11.2058 32.8462C12.0383 34.8558 13.2598 36.6809 14.8001 38.2168L16.6057 36.4106C14.0134 33.7841 12.5702 30.2356 12.5935 26.5454C12.6168 22.8551 14.1046 19.3251 16.7299 16.7316L14.8001 14.7999Z" fill="#3F8E3F"/>
<path d="M7.21049 25.8009C7.38343 20.9263 9.40071 16.2992 12.8545 12.855L10.7624 10.7628C6.77994 14.7349 4.45397 20.0707 4.25461 25.6919C4.24431 25.9632 4.24007 26.237 4.24007 26.509C4.23605 29.4344 4.81032 32.3317 5.92987 35.0344C7.04941 37.7371 8.69214 40.1919 10.7636 42.2576L12.8545 40.166C11.0586 38.3745 9.63442 36.2457 8.66395 33.9019C7.69347 31.5582 7.19582 29.0457 7.19959 26.509C7.19959 26.2724 7.20323 26.0363 7.21049 25.8009Z" fill="#19A2C6"/>
<path d="M9.95983 25.9015C10.1075 21.7212 11.8376 17.753 14.8001 14.7999L12.8545 12.855C9.40071 16.2992 7.38342 20.9263 7.21049 25.8009C7.20201 26.0359 7.19777 26.272 7.19777 26.509C7.19455 29.0454 7.69265 31.5575 8.66343 33.9008C9.63421 36.2442 11.0585 38.3725 12.8545 40.1636L14.8001 38.2187C13.2598 36.6828 12.0383 34.8576 11.2058 32.848C10.3732 30.8385 9.94611 28.6842 9.94892 26.509C9.94892 26.3061 9.95195 26.1038 9.95983 25.9015Z" fill="white"/>
<path d="M16.7299 16.7316L14.8001 14.8011C11.8377 17.7542 10.1075 21.7224 9.95983 25.9027C9.95196 26.105 9.94893 26.3073 9.94893 26.5084C9.94611 28.6836 10.3732 30.8379 11.2058 32.8474C12.0383 34.857 13.2598 36.6822 14.8001 38.2181L16.6057 36.4118C14.013 33.7853 12.5696 30.2366 12.5929 26.546C12.6162 22.8554 14.1043 19.3252 16.7299 16.7316Z" fill="#36BC4B"/>
<path d="M26.5086 4.23992C23.5832 4.23572 20.6859 4.80986 17.9831 5.9293C15.2804 7.04874 12.8257 8.69141 10.76 10.7629L12.8546 12.855C14.6476 11.0616 16.7763 9.63895 19.1192 8.66834C21.4621 7.69773 23.9732 7.19816 26.5092 7.19816C29.0452 7.19816 31.5563 7.69773 33.8992 8.66834C36.2421 9.63895 38.3708 11.0616 40.1638 12.855L42.2559 10.7635C40.1905 8.69208 37.7359 7.0494 35.0334 5.92986C32.3309 4.81032 29.4338 4.236 26.5086 4.23992Z" fill="#FE4040"/>
<path d="M26.5086 7.19823C23.9722 7.19489 21.4602 7.69294 19.1169 8.66373C16.7737 9.63452 14.6454 11.0589 12.8546 12.855L14.8001 14.7999C16.3377 13.2619 18.1632 12.0419 20.1724 11.2095C22.1815 10.3772 24.335 9.94874 26.5098 9.94874C28.6845 9.94874 30.838 10.3772 32.8472 11.2095C34.8563 12.0419 36.6819 13.2619 38.2194 14.7999L40.1638 12.855C38.3727 11.0588 36.2442 9.63442 33.9008 8.66363C31.5574 7.69284 29.0451 7.19483 26.5086 7.19823Z" fill="#FE4040"/>
<path d="M26.5086 9.94755C24.3336 9.94467 22.1794 10.3718 20.1701 11.2043C18.1607 12.0369 16.3357 13.2584 14.8001 14.7987L16.7299 16.7316C19.3345 14.1589 22.848 12.7163 26.5089 12.7163C30.1698 12.7163 33.6832 14.1589 36.2878 16.7316L38.2194 14.8011C36.6836 13.2603 34.8583 12.0383 32.8485 11.2053C30.8387 10.3724 28.6841 9.94493 26.5086 9.94755Z" fill="#FE4040"/>
<path d="M46.2682 24.5604C45.8494 24.1442 45.2993 23.8859 44.7115 23.8296C44.1238 23.7733 43.5347 23.9224 43.0444 24.2516C42.5542 24.5807 42.1932 25.0696 42.0229 25.6349C41.8525 26.2003 41.8834 26.8072 42.1101 27.3524C42.3369 27.8975 42.7455 28.3473 43.2666 28.6251C43.7876 28.9029 44.3888 28.9916 44.9678 28.876C45.5468 28.7604 46.0679 28.4478 46.4424 27.9913C46.8169 27.5347 47.0216 26.9626 47.0217 26.3721C47.0225 26.0353 46.9563 25.7016 46.827 25.3906C46.6976 25.0795 46.5077 24.7973 46.2682 24.5604ZM45.6382 28.1832C45.2358 28.4419 44.7586 28.5591 44.2821 28.5165C43.8056 28.4738 43.3568 28.2737 43.0067 27.9477C42.6565 27.6216 42.4249 27.1883 42.3484 26.716C42.2719 26.2438 42.3549 25.7595 42.5842 25.3396C42.8135 24.9197 43.1762 24.5881 43.6149 24.3973C44.0536 24.2064 44.5433 24.167 45.0069 24.2854C45.4704 24.4038 45.8813 24.6731 46.1748 25.051C46.4682 25.4289 46.6275 25.8937 46.6274 26.3721C46.6291 26.7332 46.5391 27.0888 46.3658 27.4056C46.1925 27.7224 45.9415 27.99 45.6364 28.1832H45.6382Z" fill="#FAD550"/>
<path d="M29.4226 8.54716C29.4227 9.22668 29.1952 9.88664 28.7765 10.4218C28.3578 10.9571 27.772 11.3367 27.1125 11.5003C26.4529 11.6638 25.7576 11.6019 25.1374 11.3243C24.5171 11.0468 24.0077 10.5696 23.6902 9.96877C23.4591 9.53131 23.3383 9.04404 23.3383 8.54928C23.3383 8.05453 23.4591 7.56725 23.6902 7.12979C24.0077 6.52901 24.5171 6.0518 25.1374 5.77424C25.7576 5.49668 26.4529 5.43474 27.1125 5.5983C27.772 5.76187 28.3578 6.14151 28.7765 6.67671C29.1952 7.21192 29.4227 7.87188 29.4226 8.5514V8.54716Z" fill="#F6D343"/>
<path d="M40.5745 26.6956C40.5745 34.4399 34.2965 40.7179 26.5522 40.7179C18.8079 40.7179 12.5299 34.4399 12.5299 26.6956C12.5299 18.9513 18.8079 12.6733 26.5522 12.6733C34.2965 12.6733 40.5745 18.9513 40.5745 26.6956Z" fill="#9EC25D"/>
<path d="M26.5522 12.6733C18.813 12.6733 12.5299 18.9564 12.5299 26.6956C12.5299 34.4347 18.813 40.7179 26.5522 40.7179C34.2774 40.7179 40.5495 34.4572 40.5722 26.7371C40.5737 26.7233 40.5744 26.7094 40.5745 26.6956C40.5745 26.6831 40.5739 26.6707 40.5728 26.6583C40.5526 18.9362 34.279 12.6733 26.5522 12.6733ZM26.2044 13.5814C26.5738 13.5539 26.7008 13.6495 25.9091 13.8335C24.8193 14.1546 26.4883 14.5124 26.6316 13.8882C27.3467 13.8643 27.3077 13.8377 27.4897 13.6784C27.8431 13.6924 27.9595 13.6504 27.9561 13.5898C31.4263 13.9563 34.4913 15.6679 36.6247 18.1936C36.8715 18.7937 37.0425 19.4023 37.4907 19.8662C37.4997 19.9354 37.8452 20.4534 37.6649 19.9102C37.6765 19.8078 37.6754 19.7044 37.6615 19.6023C37.8716 19.9306 38.067 20.2681 38.2471 20.6138C38.2358 20.6779 38.2167 20.7404 38.1901 20.7998C38.7174 22.552 37.4338 19.4957 37.6189 20.7883C37.1917 20.0075 36.6951 19.2551 36.2556 19.4144C35.7696 19.568 37.2282 19.7688 36.7655 20.3805C37.6191 21.2358 38.0611 22.4606 37.7218 23.66C37.2018 24.3275 36.9522 24.7439 36.8476 25.5202C36.4135 25.348 36.7489 24.0106 36.1746 25.2058C37.0193 26.0332 37.576 27.8687 36.1849 28.491C36.243 27.9598 34.9454 26.9631 35.1364 28.3191C35.5595 29.0221 36.4264 29.7493 36.2977 30.838C36.0489 31.3372 37.5673 31.1653 36.526 31.646C36.3768 31.8238 36.404 32.3653 36.7447 32.0683C37.139 32.1216 37.5193 31.6079 37.9809 31.789C37.3586 32.2955 39.1473 31.5764 38.4804 31.0604C38.5205 30.294 38.7993 29.09 38.3074 30.4678C38.484 31.5874 37.1637 31.312 36.9873 31.0506C37.2161 30.6742 36.6651 28.6609 37.1183 29.7092C37.9492 29.8587 38.3598 27.754 38.5642 26.8675C38.8152 26.1882 38.1054 24.7033 38.5502 24.4859C38.8178 25.504 39.3439 25.8635 39.4533 27.0024C39.6058 27.7035 39.3739 28.0022 39.1061 27.8563C38.742 28.3412 38.2027 30.0803 39.1723 29.0735C39.7892 27.9792 38.9457 29.739 39.1787 29.541C39.4488 29.9156 39.4569 28.4416 39.6176 28.4178C39.539 29.0224 39.4184 29.6208 39.2567 30.2087C39.2508 30.2171 39.2463 30.2213 39.2401 30.2303C38.9482 29.4156 39.1574 31.2996 38.675 31.0447C38.606 31.4059 38.7659 31.3431 38.9389 31.2149C38.8273 31.518 38.7045 31.8168 38.5707 32.1107C38.0118 32.4887 37.1525 32.4568 36.5476 32.6584C35.8804 32.6951 35.4118 31.7758 34.9701 31.8527C34.5056 31.1877 34.689 30.5551 34.0146 29.9156C34.3236 28.9164 35.9693 31.2489 35.2536 29.6007C34.3677 28.8929 34.7331 27.6367 34.419 26.6776C33.816 27.0865 33.459 26.8383 33.5112 26.1106C33.1171 25.3761 32.448 24.8076 31.7186 25.5589C31.2757 26.3358 30.4622 26.9182 29.9372 27.5333C29.6559 28.5586 30.5828 29.26 30.3946 30.2056C29.4784 30.9853 29.9509 28.6447 29.1309 29.7614C28.2626 29.2389 28.1493 27.9062 27.6653 27.0374C27.3324 26.4185 27.8162 25.4989 26.8901 25.8511C26.0393 25.7704 26.6192 24.3146 26.1172 24.8819C25.3595 24.1452 23.7705 24.6343 23.0351 24.2647C23.7211 24.6853 24.2318 25.5213 23.3616 26.0587C22.7707 26.8636 21.6887 27.1973 20.7515 27.4657C20.349 27.7761 18.3234 27.9982 19.8049 28.3471C20.4062 28.3244 20.6996 28.1533 21.2232 28.2386C21.3763 29.0788 20.609 29.7751 20.2209 30.5178C19.6196 31.1168 18.8369 31.4629 18.3951 32.1643C18.1873 32.8752 18.6209 33.7263 18.8935 34.4238C19.6414 35.4687 17.5883 35.3024 18.5026 36.1968C18.6885 36.6433 18.3197 36.5558 18.4111 37.0611C15.3428 34.6487 13.3712 30.9051 13.3712 26.6956C13.3712 24.0061 14.1767 21.5073 15.5573 19.423C15.7564 19.6676 16.2368 19.9789 15.736 20.1275C15.3633 20.5718 15.8066 22.1812 16.3619 21.039C16.869 21.4796 17.5897 22.0609 18.3492 21.7165C18.8298 21.1254 19.0217 20.2843 18.4383 21.0867C18.0079 21.0996 18.6069 20.3233 17.8589 20.6211C17.0787 21.023 16.6166 20.4753 17.0215 19.6093C17.0081 18.7205 15.4917 21.1963 16.1533 19.5621C16.9562 19.4724 16.6861 18.009 16.1412 19.2458C15.5739 19.3664 16.9663 18.2118 16.7077 18.2483C16.6502 18.2564 16.5049 18.3273 16.2458 18.4793C17.899 16.4077 20.1628 14.8465 22.7673 14.0679C23.255 14.0864 23.6992 14.2564 23.9003 14.4634C24.2321 14.1451 26.0595 14.5046 25.0437 14.0679C25.2226 13.7597 25.8348 13.6091 26.2044 13.5814ZM19.3921 18.2527C18.6422 18.58 18.1831 19.5305 19.3921 19.112C19.7926 19.1544 20.1334 19.6805 20.5672 19.365C20.6457 18.5593 19.361 18.7045 19.3921 18.2527ZM22.9008 18.3419C22.4538 18.3259 21.4226 19.1936 22.2737 19.8263C21.3561 20.3816 22.2238 20.9963 22.9173 20.7487C22.9953 19.9867 22.1083 18.7965 23.0867 18.508C23.0761 18.3963 23.004 18.3456 22.9008 18.3419ZM15.9211 18.9017C15.9236 18.9454 15.8953 18.9965 15.8072 19.0621C15.8451 19.0088 15.8824 18.9544 15.9211 18.9017ZM21.4439 22.9227C20.6129 22.9059 21.9829 23.9977 21.8915 24.3998C22.0679 24.443 22.2395 24.3766 22.4013 24.3185C23.0102 23.8636 21.3219 23.6561 21.4439 22.9227ZM17.9335 23.1218C17.8455 23.1406 17.7939 23.328 17.9111 23.7262C18.1293 24.8239 18.0118 26.0379 18.6526 26.9115C18.7269 27.0512 18.9588 27.4884 18.9423 27.0007C18.767 25.9297 18.3637 24.924 18.1674 23.7997C18.2187 23.3538 18.0466 23.0983 17.9335 23.1218ZM38.7993 26.6723C38.7426 26.6894 38.6865 26.8658 38.6562 27.2963C38.3522 27.4387 38.5048 28.6239 38.8015 28.1286C39.0901 27.727 38.9653 26.7404 38.8234 26.6745C38.8159 26.6707 38.8073 26.6699 38.7993 26.6723ZM37.2453 34.4022C36.9225 34.85 36.572 35.2771 36.1959 35.681C36.5016 35.2206 36.8297 34.7783 37.2453 34.4022ZM20.8662 34.794C21.3205 34.7396 21.5614 36.2226 21.1875 36.7423C21.295 37.3786 20.6923 37.5898 20.3364 37.0906C19.8532 36.4826 19.4193 35.2088 20.522 35.1084C20.6446 34.9014 20.7613 34.8066 20.8662 34.794Z" fill="#548BC2"/>
</svg>
