<svg width="644" height="105" viewBox="0 0 644 105" fill="none" xmlns="http://www.w3.org/2000/svg">
<path d="M124.373 84V22.1818H148.762C153.451 22.1818 157.445 23.0773 160.745 24.8683C164.046 26.6391 166.561 29.1042 168.292 32.2635C170.042 35.4027 170.918 39.0249 170.918 43.13C170.918 47.2351 170.032 50.8572 168.261 53.9964C166.491 57.1357 163.925 59.5806 160.564 61.3313C157.224 63.082 153.179 63.9574 148.43 63.9574H132.885V53.4833H146.317C148.833 53.4833 150.905 53.0507 152.535 52.1854C154.185 51.3 155.413 50.0825 156.218 48.533C157.043 46.9634 157.455 45.1624 157.455 43.13C157.455 41.0774 157.043 39.2865 156.218 37.7571C155.413 36.2076 154.185 35.0103 152.535 34.1651C150.885 33.2998 148.792 32.8672 146.257 32.8672H137.443V84H124.373ZM199.367 84.9055C194.678 84.9055 190.623 83.9094 187.202 81.9173C183.801 79.9049 181.175 77.1078 179.324 73.5259C177.473 69.9239 176.547 65.7483 176.547 60.9993C176.547 56.21 177.473 52.0244 179.324 48.4425C181.175 44.8404 183.801 42.0433 187.202 40.0511C190.623 38.0388 194.678 37.0327 199.367 37.0327C204.055 37.0327 208.1 38.0388 211.501 40.0511C214.922 42.0433 217.558 44.8404 219.409 48.4425C221.261 52.0244 222.186 56.21 222.186 60.9993C222.186 65.7483 221.261 69.9239 219.409 73.5259C217.558 77.1078 214.922 79.9049 211.501 81.9173C208.1 83.9094 204.055 84.9055 199.367 84.9055ZM199.427 74.9446C201.56 74.9446 203.341 74.3409 204.77 73.1335C206.198 71.906 207.275 70.2358 207.999 68.1229C208.744 66.0099 209.116 63.6052 209.116 60.9087C209.116 58.2122 208.744 55.8075 207.999 53.6946C207.275 51.5817 206.198 49.9115 204.77 48.6839C203.341 47.4564 201.56 46.8427 199.427 46.8427C197.274 46.8427 195.463 47.4564 193.994 48.6839C192.545 49.9115 191.448 51.5817 190.704 53.6946C189.979 55.8075 189.617 58.2122 189.617 60.9087C189.617 63.6052 189.979 66.0099 190.704 68.1229C191.448 70.2358 192.545 71.906 193.994 73.1335C195.463 74.3409 197.274 74.9446 199.427 74.9446ZM251.496 84.9055C246.747 84.9055 242.662 83.8994 239.241 81.8871C235.84 79.8546 233.224 77.0374 231.393 73.4354C229.581 69.8333 228.676 65.688 228.676 60.9993C228.676 56.2502 229.592 52.0848 231.423 48.5028C233.274 44.9008 235.9 42.0936 239.301 40.0813C242.702 38.0489 246.747 37.0327 251.435 37.0327C255.48 37.0327 259.022 37.7672 262.06 39.2361C265.099 40.7051 267.503 42.7678 269.274 45.424C271.045 48.0803 272.021 51.1993 272.202 54.7812H260.068C259.726 52.4671 258.82 50.6057 257.351 49.1971C255.903 47.7683 254.001 47.054 251.646 47.054C249.654 47.054 247.914 47.5973 246.425 48.6839C244.956 49.7505 243.809 51.31 242.983 53.3626C242.158 55.4151 241.746 57.9003 241.746 60.8182C241.746 63.7763 242.148 66.2917 242.953 68.3643C243.778 70.437 244.935 72.0167 246.425 73.1033C247.914 74.19 249.654 74.7333 251.646 74.7333C253.115 74.7333 254.434 74.4315 255.601 73.8278C256.788 73.2241 257.764 72.3487 258.529 71.2017C259.313 70.0346 259.827 68.636 260.068 67.006H272.202C272.001 70.5477 271.035 73.6668 269.305 76.3633C267.594 79.0397 265.23 81.1325 262.211 82.6417C259.193 84.1509 255.621 84.9055 251.496 84.9055ZM280.677 22.1818H296.795L313.819 63.7159H314.544L331.568 22.1818H347.687V84H335.009V43.7638H334.496L318.498 83.6982H309.865L293.867 43.6129H293.354V84H280.677V22.1818ZM370.499 67.0362L387.191 37.6364H399.868V84H387.613V54.5096L370.982 84H358.213V37.6364H370.499V67.0362ZM441.931 37.6364V47.7482H422.673V84H410.176V37.6364H441.931ZM449.771 101.386V37.6364H462.449V45.424H463.022C463.586 44.1764 464.401 42.9086 465.467 41.6207C466.554 40.3127 467.962 39.2261 469.693 38.3608C471.444 37.4754 473.617 37.0327 476.213 37.0327C479.593 37.0327 482.713 37.9181 485.57 39.6889C488.428 41.4396 490.712 44.0858 492.422 47.6275C494.132 51.149 494.988 55.566 494.988 60.8785C494.988 66.0502 494.153 70.4169 492.482 73.9787C490.832 77.5204 488.578 80.2068 485.721 82.038C482.884 83.8491 479.704 84.7546 476.183 84.7546C473.687 84.7546 471.564 84.3421 469.814 83.517C468.083 82.692 466.664 81.6557 465.558 80.408C464.451 79.1403 463.606 77.8625 463.022 76.5746H462.63V101.386H449.771ZM462.358 60.8182C462.358 63.575 462.74 65.9798 463.505 68.0323C464.27 70.0849 465.377 71.6847 466.825 72.8317C468.274 73.9586 470.035 74.522 472.108 74.522C474.2 74.522 475.971 73.9485 477.42 72.8015C478.869 71.6344 479.966 70.0245 480.71 67.9719C481.475 65.8993 481.857 63.5147 481.857 60.8182C481.857 58.1418 481.485 55.7874 480.741 53.755C479.996 51.7225 478.899 50.1328 477.45 48.9858C476.002 47.8388 474.221 47.2653 472.108 47.2653C470.015 47.2653 468.244 47.8187 466.795 48.9254C465.366 50.0322 464.27 51.6018 463.505 53.6342C462.74 55.6667 462.358 58.0613 462.358 60.8182ZM516.781 84.8754C513.823 84.8754 511.187 84.3622 508.873 83.3359C506.558 82.2895 504.727 80.7501 503.379 78.7177C502.051 76.6651 501.387 74.1095 501.387 71.0508C501.387 68.475 501.86 66.3118 502.805 64.5611C503.751 62.8104 505.039 61.4018 506.669 60.3352C508.299 59.2687 510.15 58.4638 512.223 57.9205C514.316 57.3771 516.509 56.9948 518.803 56.7734C521.5 56.4917 523.673 56.2301 525.323 55.9886C526.973 55.727 528.171 55.3447 528.915 54.8416C529.66 54.3385 530.032 53.594 530.032 52.608V52.4268C530.032 50.5152 529.428 49.0361 528.221 47.9897C527.034 46.9433 525.343 46.4201 523.15 46.4201C520.836 46.4201 518.995 46.9332 517.626 47.9595C516.258 48.9657 515.352 50.2334 514.91 51.7628L503.017 50.7969C503.62 47.9796 504.808 45.5447 506.579 43.4922C508.349 41.4195 510.633 39.8298 513.43 38.723C516.248 37.5961 519.508 37.0327 523.21 37.0327C525.786 37.0327 528.251 37.3345 530.606 37.9382C532.98 38.5419 535.083 39.4776 536.914 40.7454C538.765 42.0131 540.224 43.6431 541.291 45.6353C542.357 47.6074 542.891 49.9718 542.891 52.7287V84H530.696V77.5707H530.334C529.589 79.0195 528.593 80.2973 527.346 81.4041C526.098 82.4908 524.599 83.346 522.848 83.9698C521.097 84.5735 519.075 84.8754 516.781 84.8754ZM520.464 76.0011C522.355 76.0011 524.025 75.6288 525.474 74.8842C526.923 74.1196 528.06 73.0933 528.885 71.8054C529.71 70.5175 530.123 69.0586 530.123 67.4286V62.5085C529.72 62.7701 529.167 63.0116 528.462 63.233C527.778 63.4342 527.004 63.6254 526.138 63.8065C525.273 63.9674 524.408 64.1184 523.542 64.2592C522.677 64.38 521.892 64.4906 521.188 64.5913C519.679 64.8126 518.361 65.1648 517.234 65.6477C516.107 66.1307 515.232 66.7847 514.608 67.6097C513.984 68.4147 513.672 69.4208 513.672 70.6282C513.672 72.3789 514.306 73.7171 515.574 74.6428C516.861 75.5483 518.491 76.0011 520.464 76.0011ZM585.134 55.6868V65.7986H560.926V55.6868H585.134ZM565.152 37.6364V84H552.867V37.6364H565.152ZM593.193 37.6364V84H580.999V37.6364H593.193ZM598.513 47.7482V37.6364H640.531V47.7482H625.589V84H613.334V47.7482H598.513Z" fill="#047BEF"/>
<circle cx="52.5" cy="52.5" r="52.5" fill="#047BEF" fill-opacity="0.35"/>
<path d="M79.5696 79.5695C78.7088 80.4311 77.808 81.2507 76.8672 82.0283C76.668 82.1927 76.4652 82.3559 76.2672 82.5167C71.366 86.4052 65.5832 89.0279 59.4288 90.1535C58.5488 90.3135 57.6576 90.4439 56.7552 90.5447C53.9409 90.8535 51.1012 90.8535 48.2868 90.5447C47.3868 90.4463 46.496 90.3159 45.6144 90.1535C39.4601 89.0279 33.6773 86.4052 28.776 82.5167C28.5744 82.3559 28.3716 82.1927 28.176 82.0283C27.236 81.2515 26.3352 80.4319 25.4736 79.5695L21.3312 83.7131C22.3232 84.7067 23.3632 85.6515 24.4512 86.5475C24.6804 86.7371 24.9132 86.9255 25.1472 87.1103C30.7977 91.5962 37.4661 94.6213 44.5632 95.9183C45.58 96.1031 46.608 96.2527 47.6472 96.3671C50.8923 96.7239 54.1666 96.7239 57.4116 96.3671C58.4516 96.2543 59.4792 96.1047 60.4944 95.9183C67.5918 94.6209 74.2605 91.5958 79.9116 87.1103C80.1444 86.9255 80.3772 86.7371 80.6064 86.5475C81.6912 85.6523 82.7312 84.7075 83.7264 83.7131L79.5696 79.5695Z" fill="white"/>
<path d="M75.7153 75.7163C74.9785 76.4539 74.2057 77.1571 73.3969 77.8259C73.2277 77.9651 73.0537 78.1055 72.8809 78.2435C68.6791 81.5804 63.7197 83.8304 58.4413 84.7943C57.6853 84.9311 56.9209 85.0423 56.1481 85.1279C53.7353 85.3919 51.3009 85.3919 48.8881 85.1279C48.1145 85.0431 47.3501 84.9319 46.5949 84.7943C41.3165 83.8304 36.3571 81.5804 32.1553 78.2435C31.9813 78.1055 31.8085 77.9651 31.6381 77.8259C30.8329 77.1599 30.0577 76.4543 29.3209 75.7163L25.4665 79.5695C26.3265 80.4311 27.2273 81.2507 28.1689 82.0283C28.3681 82.1927 28.5709 82.3559 28.7689 82.5167C33.6701 86.4052 39.4529 89.028 45.6073 90.1535C46.4873 90.3135 47.3781 90.4439 48.2797 90.5447C51.094 90.8535 53.9337 90.8535 56.7481 90.5447C57.6489 90.4463 58.5401 90.3159 59.4217 90.1535C65.5761 89.028 71.3589 86.4052 76.2601 82.5167C76.4617 82.3559 76.6645 82.1927 76.8601 82.0283C77.7993 81.2515 78.7001 80.4319 79.5625 79.5695L75.7153 75.7163Z" fill="#3461B2"/>
<path d="M72.1357 72.1355C69.5711 74.7333 66.5162 76.7959 63.1482 78.2037C59.7802 79.6115 56.1661 80.3364 52.5157 80.3364C48.8653 80.3364 45.2512 79.6115 41.8832 78.2037C38.5152 76.7959 35.4602 74.7333 32.8957 72.1355L29.3185 75.7139C30.0553 76.4519 30.8305 77.1539 31.6357 77.8235C31.8061 77.9627 31.9789 78.1031 32.1529 78.2411C36.3547 81.578 41.3141 83.8279 46.5925 84.7919C47.3485 84.9287 48.1129 85.0399 48.8857 85.1255C51.2985 85.3895 53.7329 85.3895 56.1457 85.1255C56.9201 85.0407 57.6845 84.9295 58.4389 84.7919C63.7179 83.829 68.6781 81.5799 72.8809 78.2435C73.0537 78.1055 73.2277 77.9651 73.3969 77.8259C74.2033 77.1595 74.9761 76.4563 75.7153 75.7163L72.1357 72.1355Z" fill="#DE554B"/>
<path d="M96.6049 50.8991C96.21 39.7637 91.6029 29.1933 83.7145 21.3239L79.5697 25.4675C86.4126 32.2906 90.4092 41.4577 90.7513 51.1151C90.7681 51.5807 90.7753 52.0487 90.7753 52.5179C90.7819 57.5429 89.7953 62.5196 87.8722 67.162C85.9492 71.8045 83.1276 76.0211 79.5697 79.5695L83.7121 83.7131C87.8158 79.6207 91.07 74.7574 93.2878 69.403C95.5056 64.0486 96.6431 58.3086 96.6349 52.5131C96.6349 51.9739 96.6249 51.4359 96.6049 50.8991ZM25.4665 25.4675L21.3217 21.3227C13.4319 29.1918 8.82382 39.7628 8.42886 50.8991C8.40846 51.4367 8.40007 51.9791 8.40007 52.5179C8.39211 58.3135 9.52981 64.0535 11.7478 69.4079C13.9657 74.7623 17.2202 79.6255 21.3241 83.7179L25.4665 79.5743C21.9084 76.0251 19.087 71.8076 17.1643 67.1643C15.2417 62.521 14.2558 57.5435 14.2633 52.5179C14.2633 52.0491 14.2717 51.5815 14.2885 51.1151C14.6301 41.4584 18.6253 32.2915 25.4665 25.4675Z" fill="#DB403E"/>
<path d="M90.7513 51.1151C90.4093 41.4577 86.4127 32.2906 79.5697 25.4675L75.7177 29.3207C81.5846 35.1722 85.0108 43.0332 85.3033 51.3143C85.3189 51.7151 85.3249 52.1159 85.3249 52.5143C85.3311 56.8241 84.4853 61.0927 82.8361 65.0745C81.187 69.0564 78.767 72.6729 75.7153 75.7163L79.5697 79.5695C83.1276 76.021 85.9492 71.8044 87.8723 67.162C89.7953 62.5196 90.7819 57.5428 90.7753 52.5179C90.7753 52.0487 90.7681 51.5807 90.7513 51.1151ZM29.3209 29.3207L25.4665 25.4675C18.624 32.2909 14.6275 41.4579 14.2849 51.1151C14.2681 51.5807 14.2597 52.0483 14.2597 52.5179C14.2533 57.5429 15.2401 62.5197 17.1633 67.1621C19.0866 71.8045 21.9084 76.0211 25.4665 79.5695L29.3209 75.7163C26.2694 72.6734 23.8494 69.0575 22.2001 65.0763C20.5507 61.0951 19.7045 56.8272 19.7101 52.5179C19.7101 52.1159 19.7161 51.7151 19.7317 51.3179C20.0234 43.0349 23.4511 35.172 29.3209 29.3207Z" fill="white"/>
<path d="M85.3033 51.3143C85.0104 43.0331 81.5838 35.172 75.7164 29.3207L71.8908 33.1475C74.4676 35.6914 76.5178 38.7181 77.9245 42.0546C79.3311 45.3911 80.0666 48.9721 80.0889 52.593C80.1112 56.2138 79.4198 59.8036 78.0544 63.1572C76.6889 66.5107 74.6761 69.5624 72.1308 72.1379L75.7104 75.7187C78.7619 72.6759 81.1819 69.0599 82.8313 65.0787C84.4806 61.0975 85.3268 56.8296 85.3213 52.5203C85.3261 52.1159 85.3201 51.7151 85.3033 51.3143ZM29.3208 29.3207C23.4519 35.1711 20.0243 43.0325 19.7316 51.3143C19.716 51.7151 19.71 52.1159 19.71 52.5143C19.7045 56.8236 20.5507 61.0915 22.2 65.0727C23.8494 69.0539 26.2694 72.6699 29.3208 75.7127L32.898 72.1343C27.7623 66.9309 24.9031 59.9009 24.9493 52.5899C24.9954 45.279 27.943 38.2857 33.1441 33.1475L29.3208 29.3207Z" fill="#3F8E3F"/>
<path d="M14.2849 51.1151C14.6275 41.4579 18.624 32.291 25.4665 25.4675L21.3217 21.3227C13.4319 29.1918 8.82382 39.7628 8.42886 50.8991C8.40846 51.4367 8.40007 51.9791 8.40007 52.5179C8.39211 58.3135 9.52981 64.0535 11.7478 69.4079C13.9657 74.7623 17.2202 79.6255 21.3241 83.7179L25.4665 79.5743C21.9084 76.0251 19.087 71.8076 17.1643 67.1643C15.2417 62.521 14.2558 57.5435 14.2633 52.5179C14.2633 52.0491 14.2705 51.5815 14.2849 51.1151Z" fill="#19A2C6"/>
<path d="M19.7317 51.3143C20.0243 43.0325 23.4519 35.1711 29.3209 29.3207L25.4665 25.4675C18.624 32.2909 14.6275 41.4579 14.2849 51.1151C14.2681 51.5807 14.2597 52.0483 14.2597 52.5179C14.2533 57.5429 15.2401 62.5197 17.1633 67.1621C19.0866 71.8045 21.9084 76.0211 25.4665 79.5695L29.3209 75.7163C26.2694 72.6734 23.8494 69.0575 22.2001 65.0763C20.5507 61.0951 19.7045 56.8272 19.7101 52.5179C19.7101 52.1159 19.7161 51.7151 19.7317 51.3143Z" fill="white"/>
<path d="M33.1441 33.1475L29.3208 29.3231C23.4519 35.1735 20.0243 43.0349 19.7316 51.3167C19.716 51.7175 19.71 52.1183 19.71 52.5167C19.7045 56.826 20.5507 61.0939 22.2 65.0751C23.8494 69.0563 26.2694 72.6722 29.3208 75.7151L32.898 72.1367C27.7615 66.9331 24.9019 59.9026 24.9481 52.5911C24.9942 45.2796 27.9423 38.2857 33.1441 33.1475Z" fill="#36BC4B"/>
<path d="M52.5169 8.39989C46.7213 8.39157 40.9813 9.529 35.6269 11.7468C30.2724 13.9645 25.4092 17.2189 21.3169 21.3227L25.4665 25.4675C29.0187 21.9145 33.236 19.0961 37.8775 17.1732C42.5191 15.2503 47.494 14.2606 52.5181 14.2606C57.5422 14.2606 62.5171 15.2503 67.1586 17.1732C71.8002 19.0961 76.0175 21.9145 79.5697 25.4675L83.7145 21.3239C79.6225 17.2202 74.7597 13.9658 69.4057 11.7479C64.0517 9.52991 58.3121 8.39211 52.5169 8.39989Z" fill="#FE4040"/>
<path d="M52.5169 14.2607C47.492 14.2541 42.5154 15.2408 37.8731 17.164C33.2308 19.0873 29.0145 21.9092 25.4665 25.4675L29.3209 29.3207C32.3671 26.2737 35.9836 23.8567 39.9641 22.2076C43.9445 20.5586 48.2108 19.7098 52.5193 19.7098C56.8278 19.7098 61.0941 20.5586 65.0745 22.2076C69.0549 23.8567 72.6715 26.2737 75.7177 29.3207L79.5697 25.4675C76.0213 21.9091 71.8046 19.0871 67.1619 17.1638C62.5192 15.2406 57.5422 14.254 52.5169 14.2607Z" fill="#FE4040"/>
<path d="M52.5169 19.7075C48.2079 19.7018 43.9403 20.5479 39.9594 22.1973C35.9786 23.8467 32.3631 26.2667 29.3209 29.3183L33.1441 33.1475C38.3041 28.0508 45.2647 25.1927 52.5175 25.1927C59.7702 25.1927 66.7308 28.0508 71.8909 33.1475L75.7177 29.3231C72.6749 26.2705 69.0588 23.8495 65.0771 22.1993C61.0955 20.5491 56.8269 19.7023 52.5169 19.7075Z" fill="#FE4040"/>
<path d="M91.6633 48.6575C90.8336 47.8329 89.7438 47.3212 88.5794 47.2097C87.415 47.0981 86.2478 47.3935 85.2767 48.0456C84.3055 48.6977 83.5903 49.6662 83.2529 50.7862C82.9154 51.9062 82.9764 53.1086 83.4256 54.1887C83.8749 55.2687 84.6845 56.1598 85.7167 56.7101C86.7489 57.2605 87.94 57.4361 89.0871 57.2072C90.2343 56.9782 91.2666 56.3588 92.0085 55.4544C92.7504 54.55 93.1559 53.4164 93.1561 52.2467C93.1578 51.5793 93.0266 50.9183 92.7703 50.3021C92.5141 49.6859 92.1377 49.1268 91.6633 48.6575ZM90.4153 55.8347C89.618 56.3471 88.6727 56.5794 87.7286 56.4949C86.7846 56.4104 85.8955 56.0139 85.2019 55.368C84.5082 54.7222 84.0494 53.8636 83.8978 52.928C83.7463 51.9924 83.9106 51.0329 84.3649 50.2011C84.8192 49.3693 85.5376 48.7124 86.4067 48.3342C87.2758 47.956 88.2461 47.878 89.1645 48.1126C90.0828 48.3471 90.8969 48.8808 91.4783 49.6294C92.0596 50.378 92.3751 51.2988 92.3749 52.2467C92.3784 52.9621 92.2001 53.6666 91.8567 54.2942C91.5133 54.9218 91.0161 55.4519 90.4117 55.8347H90.4153Z" fill="#FAD550"/>
<path d="M58.2901 16.9331C58.2901 18.2793 57.8395 19.5868 57.01 20.6471C56.1805 21.7074 55.02 22.4595 53.7134 22.7836C52.4067 23.1076 51.0292 22.9849 49.8004 22.435C48.5717 21.8851 47.5623 20.9397 46.9333 19.7495C46.4755 18.8828 46.2361 17.9175 46.2361 16.9373C46.2361 15.9571 46.4755 14.9918 46.9333 14.1251C47.5623 12.9349 48.5717 11.9894 49.8004 11.4396C51.0292 10.8897 52.4067 10.767 53.7134 11.091C55.02 11.415 56.1805 12.1672 57.01 13.2275C57.8395 14.2878 58.2901 15.5953 58.2901 16.9415V16.9331Z" fill="#F6D343"/>
<path d="M80.3833 52.8875C80.3833 68.23 67.9458 80.6675 52.6033 80.6675C37.2608 80.6675 24.8233 68.23 24.8233 52.8875C24.8233 37.545 37.2608 25.1075 52.6033 25.1075C67.9458 25.1075 80.3833 37.545 80.3833 52.8875Z" fill="#9EC25D"/>
<path d="M52.6033 25.1075C37.271 25.1075 24.8233 37.5551 24.8233 52.8875C24.8233 68.2198 37.271 80.6675 52.6033 80.6675C67.9079 80.6675 80.3339 68.2643 80.3789 52.9697C80.3817 52.9424 80.3832 52.9149 80.3833 52.8875C80.3833 52.8628 80.3822 52.8382 80.38 52.8136C80.34 37.5151 67.9112 25.1075 52.6033 25.1075ZM51.9144 26.9065C52.6461 26.8521 52.8978 27.0415 51.3293 27.406C49.1702 28.0422 52.4766 28.7511 52.7605 27.5143C54.1773 27.4671 54.1001 27.4143 54.4607 27.0988C55.1607 27.1265 55.3913 27.0432 55.3846 26.9232C62.2596 27.6494 68.3318 31.0402 72.5582 36.0439C73.0472 37.2329 73.3861 38.4385 74.2739 39.3575C74.2917 39.4947 74.9762 40.5209 74.619 39.4447C74.6421 39.2419 74.6398 39.037 74.6123 38.8347C75.0285 39.4852 75.4156 40.1539 75.7724 40.8387C75.7501 40.9657 75.7122 41.0894 75.6596 41.2071C76.7041 44.6785 74.1611 38.6236 74.5278 41.1843C73.6817 39.6375 72.6977 38.1469 71.8271 38.4624C70.8642 38.7669 73.7539 39.1647 72.8371 40.3765C74.5284 42.0711 75.404 44.4974 74.7317 46.8737C73.7017 48.196 73.2072 49.0211 72.9999 50.559C72.1399 50.2178 72.8044 47.5682 71.6665 49.9361C73.34 51.5752 74.4428 55.2116 71.687 56.4444C71.8021 55.3921 69.2313 53.4175 69.6097 56.1039C70.4481 57.4967 72.1654 58.9374 71.9104 61.0942C71.4176 62.0832 74.4256 61.7426 72.3627 62.6949C72.0671 63.0472 72.121 64.12 72.796 63.5317C73.5772 63.6372 74.3306 62.6194 75.2451 62.9783C74.0122 63.9817 77.5559 62.5571 76.2346 61.5348C76.3141 60.0164 76.8664 57.6312 75.8918 60.3609C76.2419 62.5788 73.6261 62.0332 73.2766 61.5154C73.73 60.7698 72.6382 56.7811 73.5361 58.858C75.1823 59.1541 75.9957 54.9843 76.4008 53.2281C76.898 51.8824 75.4918 48.9405 76.373 48.5099C76.903 50.5267 77.9453 51.239 78.162 53.4953C78.4643 54.8843 78.0048 55.476 77.4742 55.1871C76.753 56.1477 75.6846 59.593 77.6053 57.5984C78.8276 55.4305 77.1564 58.9169 77.6181 58.5246C78.1531 59.2669 78.1692 56.3466 78.4876 56.2994C78.332 57.4973 78.093 58.6828 77.7725 59.8475C77.7609 59.8642 77.752 59.8725 77.7398 59.8903C77.1614 58.2762 77.5759 62.0088 76.6202 61.5037C76.4835 62.2193 76.8002 62.0949 77.143 61.841C76.9219 62.4413 76.6785 63.0332 76.4135 63.6156C75.3062 64.3645 73.6039 64.3012 72.4054 64.7006C71.0837 64.7734 70.1553 62.9522 69.2802 63.1044C68.3601 61.7871 68.7235 60.5336 67.3873 59.2669C67.9995 57.2873 71.2598 61.9082 69.8419 58.6429C68.0868 57.2406 68.8107 54.7521 68.1884 52.8519C66.9939 53.662 66.2866 53.1703 66.39 51.7285C65.6093 50.2734 64.2837 49.1472 62.8386 50.6356C61.9613 52.1746 60.3495 53.3286 59.3094 54.5471C58.7521 56.5783 60.5884 57.9679 60.2156 59.8414C58.4004 61.3859 59.3366 56.7489 57.712 58.9613C55.9919 57.9262 55.7674 55.286 54.8085 53.5648C54.149 52.3386 55.1074 50.5167 53.2728 51.2146C51.5871 51.0546 52.7361 48.1704 51.7416 49.2944C50.2403 47.8349 47.0923 48.8038 45.6355 48.0715C46.9945 48.9049 48.0063 50.5612 46.2822 51.6257C45.1116 53.2203 42.9681 53.8815 41.1113 54.4132C40.314 55.0282 36.3009 55.4682 39.2361 56.1594C40.4273 56.1144 41.0085 55.7755 42.0458 55.9444C42.3491 57.609 40.829 58.9885 40.0601 60.4598C38.8689 61.6465 37.3182 62.3321 36.4431 63.7217C36.0314 65.1301 36.8904 66.8164 37.4304 68.1982C38.9122 70.2683 34.8447 69.9388 36.6559 71.7107C37.0243 72.5952 36.2937 72.4218 36.4748 73.423C30.396 68.6437 26.4901 61.227 26.4901 52.8875C26.4901 47.5593 28.0858 42.6089 30.821 38.4797C31.2155 38.9641 32.1672 39.5809 31.1749 39.8753C30.4365 40.7554 31.3149 43.944 32.415 41.681C33.4195 42.5539 34.8474 43.7056 36.352 43.0234C37.3043 41.8522 37.6843 40.1859 36.5287 41.7755C35.6758 41.801 36.8626 40.2631 35.3808 40.8532C33.8351 41.6494 32.9195 40.5643 33.7218 38.8486C33.6951 37.0879 30.691 41.9927 32.0017 38.7552C33.5923 38.5774 33.0573 35.6783 31.9778 38.1285C30.8538 38.3674 33.6123 36.08 33.1001 36.1523C32.9862 36.1684 32.6984 36.3089 32.185 36.6101C35.4603 32.5059 39.9451 29.4128 45.1049 27.8705C46.0711 27.9072 46.9512 28.2438 47.3495 28.6539C48.0068 28.0233 51.6271 28.7356 49.6147 27.8705C49.9692 27.2599 51.1821 26.9615 51.9144 26.9065ZM38.4183 36.1611C36.9326 36.8095 36.0231 38.6925 38.4183 37.8635C39.2117 37.9474 39.8867 38.9897 40.7462 38.3647C40.9018 36.7684 38.3566 37.0562 38.4183 36.1611ZM45.3694 36.3378C44.4838 36.3062 42.4408 38.0252 44.1271 39.2786C42.3091 40.3787 44.0282 41.5966 45.4022 41.106C45.5566 39.5964 43.7993 37.2385 45.7378 36.6667C45.7166 36.4456 45.5739 36.345 45.3694 36.3378ZM31.5416 37.4468C31.5466 37.5335 31.4905 37.6346 31.316 37.7646C31.3911 37.659 31.4649 37.5513 31.5416 37.4468ZM42.483 45.413C40.8368 45.3797 43.5509 47.5426 43.3698 48.3393C43.7193 48.4249 44.0593 48.2932 44.3799 48.1782C45.5861 47.277 42.2414 46.8659 42.483 45.413ZM35.5286 45.8075C35.3541 45.8447 35.2519 46.2158 35.4842 47.0048C35.9164 49.1794 35.6836 51.5846 36.9532 53.3153C37.1004 53.592 37.5599 54.4582 37.5271 53.492C37.1798 51.3701 36.3809 49.3778 35.992 47.1504C36.0936 46.267 35.7525 45.7608 35.5286 45.8075ZM76.8664 52.8414C76.7541 52.8753 76.643 53.2247 76.583 54.0776C75.9807 54.3598 76.283 56.7078 76.8708 55.7266C77.4425 54.931 77.1953 52.9764 76.9141 52.8458C76.8994 52.8383 76.8823 52.8367 76.8664 52.8414ZM73.7878 68.1554C73.1483 69.0424 72.4539 69.8886 71.7087 70.6889C72.3143 69.7766 72.9644 68.9004 73.7878 68.1554ZM41.3385 68.9315C42.2386 68.8238 42.7158 71.7618 41.9752 72.7913C42.188 74.0519 40.994 74.4703 40.289 73.4814C39.3317 72.2768 38.4722 69.7533 40.6568 69.5544C40.8996 69.1443 41.1307 68.9565 41.3385 68.9315Z" fill="#548BC2"/>
</svg>
