<svg width="56" height="44" viewBox="0 0 56 44" fill="none" xmlns="http://www.w3.org/2000/svg">
<g opacity="0.75">
<g clip-path="url(#clip0_5_285)">
<path d="M-15.3623 0H72.3618V44H-15.3623V0Z" fill="#006600"/>
<path d="M-15.3623 0H72.3618V31.4286H-15.3623V0Z" fill="white"/>
<path d="M-15.3623 0H72.3618V12.5714H-15.3623V0Z" fill="#CC0000"/>
<path d="M26.7456 21.3945C26.8311 21.2469 26.9622 21.1313 27.1191 21.0652C27.2759 20.999 27.45 20.9859 27.6149 21.0278C27.7799 21.0697 27.9267 21.1643 28.0333 21.2974C28.1399 21.4305 28.2003 21.5947 28.2056 21.7654V24.9082H28.7946V21.7654C28.7998 21.5947 28.8602 21.4305 28.9668 21.2974C29.0734 21.1643 29.2202 21.0697 29.3852 21.0278C29.5501 20.9859 29.7242 20.999 29.881 21.0652C30.0379 21.1313 30.169 21.2469 30.2545 21.3945C30.3467 21.1158 30.3715 20.8192 30.3271 20.5291C30.2826 20.2389 30.1701 19.9634 29.9988 19.7254C29.8275 19.4874 29.6023 19.2935 29.3418 19.1598C29.0812 19.0262 28.7927 18.9565 28.5001 18.9565C28.2074 18.9565 27.9189 19.0262 27.6584 19.1598C27.3978 19.2935 27.1726 19.4874 27.0013 19.7254C26.83 19.9634 26.7175 20.2389 26.673 20.5291C26.6286 20.8192 26.6534 21.1158 26.7456 21.3945Z" fill="#F8C300"/>
<path d="M27.1654 20.5742C27.4225 20.5215 27.6896 20.5511 27.9291 20.6588C28.1685 20.7665 28.3682 20.9469 28.5 21.1745C28.6318 20.9469 28.8315 20.7665 29.071 20.6588C29.3105 20.5511 29.5776 20.5215 29.8347 20.5742C29.7904 20.2507 29.6308 19.9542 29.3855 19.7396C29.1401 19.525 28.8256 19.4067 28.5 19.4067C28.1745 19.4067 27.86 19.525 27.6146 19.7396C27.3693 19.9542 27.2097 20.2507 27.1654 20.5742Z" fill="white"/>
<path d="M28.2055 23.6528C28.1656 24.0987 28.0016 24.5244 27.7321 24.8813C27.4626 25.2382 27.0986 25.5119 26.6815 25.6713C26.2644 25.8306 25.8111 25.8692 25.3732 25.7825C24.9353 25.6959 24.5305 25.4875 24.205 25.1812C24.0659 25.5315 23.8491 25.8453 23.5711 26.099C23.293 26.3527 22.9611 26.5396 22.6003 26.6454C22.2396 26.7512 21.8595 26.7732 21.4891 26.7098C21.1186 26.6463 20.7674 26.499 20.4621 26.2791C20.6908 28.5688 24.1121 28.1013 24.367 25.875C25.4419 27.768 27.8054 27.2258 28.497 24.907L28.2055 23.6528Z" fill="#F8C300"/>
<path d="M28.7946 23.6528C28.8345 24.0987 28.9985 24.5244 29.268 24.8813C29.5375 25.2382 29.9015 25.5119 30.3186 25.6713C30.7357 25.8306 31.189 25.8692 31.6269 25.7825C32.0648 25.6959 32.4696 25.4875 32.7951 25.1812C32.9342 25.5315 33.151 25.8453 33.429 26.099C33.707 26.3527 34.039 26.5396 34.3998 26.6454C34.7605 26.7512 35.1405 26.7732 35.511 26.7098C35.8815 26.6463 36.2327 26.499 36.538 26.2791C36.3093 28.5688 32.8879 28.1013 32.633 25.875C31.5582 27.768 29.1947 27.2258 28.5031 24.907L28.7946 23.6528Z" fill="#F8C300"/>
<path d="M25.9209 27.7186C25.4436 28.7523 24.4895 28.9299 23.6549 28.0954C23.6549 28.0954 23.9904 27.8576 24.3496 27.7921C24.2822 27.5045 24.4203 27.1068 24.6149 26.8917C24.8191 27.0316 25.1039 27.3121 25.1764 27.6381C25.6795 27.5727 25.9209 27.7186 25.9209 27.7186Z" fill="#F8C300"/>
<path d="M29.6554 27.6015C29.0166 28.5435 28.0464 28.5629 27.3584 27.6032C27.3584 27.6032 27.728 27.4234 28.0931 27.4174C28.0733 27.1227 28.2741 26.7528 28.501 26.5724C28.6797 26.7438 28.9152 27.0671 28.9338 27.4005C29.4408 27.4182 29.6554 27.6015 29.6554 27.6015Z" fill="#F8C300"/>
<path d="M33.359 28.096C32.5759 28.9211 31.6155 28.7817 31.0924 27.7225C31.0924 27.7225 31.4863 27.6054 31.8474 27.6591C31.8757 27.3651 32.1339 27.033 32.3871 26.892C32.5356 27.0903 32.7155 27.4477 32.6797 27.7798C33.1771 27.88 33.359 28.096 33.359 28.096Z" fill="#F8C300"/>
<path d="M22.422 30.0248C26.3881 28.8405 30.6121 28.8405 34.5781 30.0248" stroke="#F8C300" stroke-width="13.7143"/>
<path d="M27.0102 14.5792H29.9899L27.5793 16.3361L28.5 13.4934L29.4208 16.3361L27.0102 14.5792Z" fill="#F8C300"/>
<path d="M22.624 15.7582H25.6037L23.1931 17.5151L24.1138 14.6724L25.0346 17.5151L22.624 15.7582Z" fill="#F8C300"/>
<path d="M19.4131 18.9793H22.3928L19.9822 20.7362L20.9029 17.8934L21.8237 20.7362L19.4131 18.9793Z" fill="#F8C300"/>
<path d="M18.2378 23.3793H21.2175L18.8069 25.1362L19.7276 22.2934L20.6484 25.1362L18.2378 23.3793Z" fill="#F8C300"/>
<path d="M34.3761 15.7582H31.3964L33.807 17.5151L32.8863 14.6724L31.9655 17.5151L34.3761 15.7582Z" fill="#F8C300"/>
<path d="M37.587 18.9793H34.6073L37.0179 20.7362L36.0972 17.8934L35.1764 20.7362L37.587 18.9793Z" fill="#F8C300"/>
<path d="M38.7623 23.3793H35.7826L38.1932 25.1362L37.2725 22.2934L36.3517 25.1362L38.7623 23.3793Z" fill="#F8C300"/>
</g>
</g>
<defs>
<clipPath id="clip0_5_285">
<rect width="56" height="44" rx="8" fill="white"/>
</clipPath>
</defs>
</svg>
