<svg width="56" height="44" viewBox="0 0 56 44" fill="none" xmlns="http://www.w3.org/2000/svg">
<g opacity="0.9">
<g clip-path="url(#clip0_5_33)">
<path d="M0 0H90.2627V44H0V0Z" fill="#1EB53A"/>
<path d="M0 0H90.2627V22H0V0Z" fill="#0099B5"/>
<path d="M0 14.08H90.2627V29.92H0V14.08Z" fill="#CE1126"/>
<path d="M0 14.96H90.2627V29.04H0V14.96Z" fill="white"/>
<path d="M12.6368 12.32C15.6278 12.32 18.0525 9.95607 18.0525 7.04001C18.0525 4.12395 15.6278 1.76001 12.6368 1.76001C9.64573 1.76001 7.22101 4.12395 7.22101 7.04001C7.22101 9.95607 9.64573 12.32 12.6368 12.32Z" fill="white"/>
<path d="M14.442 12.32C17.4331 12.32 19.8578 9.95607 19.8578 7.04001C19.8578 4.12395 17.4331 1.76001 14.442 1.76001C11.451 1.76001 9.02628 4.12395 9.02628 7.04001C9.02628 9.95607 11.451 12.32 14.442 12.32Z" fill="#0099B5"/>
<path d="M24.5515 10.208L24.2168 11.2123L24.7318 11.3755" fill="white"/>
<path d="M24.5515 10.208L24.8862 11.2123L24.3711 11.3755" fill="white"/>
<path d="M25.5783 10.944L24.4985 10.9377L24.5017 11.4594" fill="white"/>
<path d="M25.5816 10.9409L24.7083 11.5584L24.387 11.128" fill="white"/>
<path d="M23.5213 10.9409L24.3946 11.5584L24.716 11.128" fill="white"/>
<path d="M23.5246 10.9439L24.6045 10.9377L24.6012 11.4594" fill="white"/>
<path d="M25.1881 12.1202L24.8507 11.114L24.3384 11.2753" fill="white"/>
<path d="M25.1901 12.1183L24.3118 11.4955L24.6283 11.0705" fill="white"/>
<path d="M23.9164 12.1183L24.7911 11.4993L24.4712 11.0705" fill="white"/>
<path d="M23.9148 12.1168L24.2473 11.114L24.7646 11.2787" fill="white"/>
<path d="M24.5515 5.98401L24.2168 6.98832L24.7318 7.15149" fill="white"/>
<path d="M24.5515 5.98401L24.8862 6.98832L24.3711 7.15149" fill="white"/>
<path d="M25.5783 6.71997L24.4985 6.71369L24.5017 7.23542" fill="white"/>
<path d="M25.5816 6.71689L24.7083 7.33439L24.387 6.90402" fill="white"/>
<path d="M23.5213 6.71689L24.3946 7.33439L24.716 6.90402" fill="white"/>
<path d="M23.5246 6.71994L24.6045 6.71366L24.6012 7.23539" fill="white"/>
<path d="M25.1881 7.89618L24.8507 6.88999L24.3384 7.05128" fill="white"/>
<path d="M25.1901 7.89432L24.3118 7.27154L24.6283 6.84646" fill="white"/>
<path d="M23.9164 7.89432L24.7911 7.27532L24.4712 6.84646" fill="white"/>
<path d="M23.9148 7.89279L24.2473 6.89L24.7646 7.05469" fill="white"/>
<path d="M24.5515 1.76001L24.2168 2.76433L24.7318 2.92749" fill="white"/>
<path d="M24.5515 1.76001L24.8862 2.76433L24.3711 2.92749" fill="white"/>
<path d="M25.5783 2.49597L24.4985 2.4897L24.5017 3.01142" fill="white"/>
<path d="M25.5816 2.49289L24.7083 3.11039L24.387 2.68002" fill="white"/>
<path d="M23.5213 2.49289L24.3946 3.11039L24.716 2.68002" fill="white"/>
<path d="M23.5246 2.49594L24.6045 2.48966L24.6012 3.01139" fill="white"/>
<path d="M25.1881 3.67221L24.8507 2.66603L24.3384 2.82732" fill="white"/>
<path d="M25.1901 3.67035L24.3118 3.04757L24.6283 2.62249" fill="white"/>
<path d="M23.9164 3.67035L24.7911 3.05135L24.4712 2.62249" fill="white"/>
<path d="M23.9148 3.66882L24.2473 2.66603L24.7646 2.83072" fill="white"/>
<path d="M28.8841 10.208L28.5494 11.2123L29.0645 11.3755" fill="white"/>
<path d="M28.8841 10.208L29.2188 11.2123L28.7037 11.3755" fill="white"/>
<path d="M29.9109 10.944L28.8311 10.9377L28.8343 11.4594" fill="white"/>
<path d="M29.9142 10.9409L29.0409 11.5584L28.7196 11.128" fill="white"/>
<path d="M27.8539 10.9409L28.7272 11.5584L29.0486 11.128" fill="white"/>
<path d="M27.8572 10.9439L28.9371 10.9377L28.9338 11.4594" fill="white"/>
<path d="M29.5208 12.1202L29.1833 11.114L28.671 11.2753" fill="white"/>
<path d="M29.5227 12.1183L28.6445 11.4955L28.9609 11.0705" fill="white"/>
<path d="M28.249 12.1183L29.1237 11.4993L28.8038 11.0705" fill="white"/>
<path d="M28.2474 12.1168L28.5799 11.114L29.0972 11.2787" fill="white"/>
<path d="M28.8841 5.98401L28.5494 6.98832L29.0645 7.15149" fill="white"/>
<path d="M28.8841 5.98401L29.2188 6.98832L28.7037 7.15149" fill="white"/>
<path d="M29.9109 6.71997L28.8311 6.71369L28.8343 7.23542" fill="white"/>
<path d="M29.9142 6.71689L29.0409 7.33439L28.7196 6.90402" fill="white"/>
<path d="M27.8539 6.71689L28.7272 7.33439L29.0486 6.90402" fill="white"/>
<path d="M27.8572 6.71994L28.9371 6.71366L28.9338 7.23539" fill="white"/>
<path d="M29.5208 7.89618L29.1833 6.88999L28.671 7.05128" fill="white"/>
<path d="M29.5227 7.89432L28.6445 7.27154L28.9609 6.84646" fill="white"/>
<path d="M28.249 7.89432L29.1237 7.27532L28.8038 6.84646" fill="white"/>
<path d="M28.2474 7.89279L28.5799 6.89L29.0972 7.05469" fill="white"/>
<path d="M28.8841 1.76001L28.5494 2.76433L29.0645 2.92749" fill="white"/>
<path d="M28.8841 1.76001L29.2188 2.76433L28.7037 2.92749" fill="white"/>
<path d="M29.9109 2.49597L28.8311 2.4897L28.8343 3.01142" fill="white"/>
<path d="M29.9142 2.49289L29.0409 3.11039L28.7196 2.68002" fill="white"/>
<path d="M27.8539 2.49289L28.7272 3.11039L29.0486 2.68002" fill="white"/>
<path d="M27.8572 2.49594L28.9371 2.48966L28.9338 3.01139" fill="white"/>
<path d="M29.5208 3.67221L29.1833 2.66603L28.671 2.82732" fill="white"/>
<path d="M29.5227 3.67035L28.6445 3.04757L28.9609 2.62249" fill="white"/>
<path d="M28.249 3.67035L29.1237 3.05135L28.8038 2.62249" fill="white"/>
<path d="M28.2474 3.66882L28.5799 2.66603L29.0972 2.83072" fill="white"/>
<path d="M33.2167 10.208L32.882 11.2123L33.3971 11.3755" fill="white"/>
<path d="M33.2167 10.208L33.5514 11.2123L33.0363 11.3755" fill="white"/>
<path d="M34.2436 10.944L33.1637 10.9377L33.1669 11.4594" fill="white"/>
<path d="M34.2469 10.9409L33.3736 11.5584L33.0522 11.128" fill="white"/>
<path d="M32.1866 10.9409L33.0599 11.5584L33.3812 11.128" fill="white"/>
<path d="M32.1898 10.9439L33.2697 10.9377L33.2664 11.4594" fill="white"/>
<path d="M33.8534 12.1202L33.516 11.114L33.0036 11.2753" fill="white"/>
<path d="M33.8553 12.1183L32.9771 11.4955L33.2935 11.0705" fill="white"/>
<path d="M32.5816 12.1183L33.4563 11.4993L33.1364 11.0705" fill="white"/>
<path d="M32.58 12.1168L32.9125 11.114L33.4298 11.2787" fill="white"/>
<path d="M33.2167 5.98401L32.882 6.98832L33.3971 7.15149" fill="white"/>
<path d="M33.2167 5.98401L33.5514 6.98832L33.0363 7.15149" fill="white"/>
<path d="M34.2436 6.71997L33.1637 6.71369L33.1669 7.23542" fill="white"/>
<path d="M34.2469 6.71689L33.3736 7.33439L33.0522 6.90402" fill="white"/>
<path d="M32.1866 6.71689L33.0599 7.33439L33.3812 6.90402" fill="white"/>
<path d="M32.1898 6.71994L33.2697 6.71366L33.2664 7.23539" fill="white"/>
<path d="M33.8534 7.89618L33.516 6.88999L33.0036 7.05128" fill="white"/>
<path d="M33.8553 7.89432L32.9771 7.27154L33.2935 6.84646" fill="white"/>
<path d="M32.5816 7.89432L33.4563 7.27532L33.1364 6.84646" fill="white"/>
<path d="M32.58 7.89279L32.9125 6.89L33.4298 7.05469" fill="white"/>
<path d="M33.2167 1.76001L32.882 2.76433L33.3971 2.92749" fill="white"/>
<path d="M33.2167 1.76001L33.5514 2.76433L33.0363 2.92749" fill="white"/>
<path d="M34.2436 2.49597L33.1637 2.4897L33.1669 3.01142" fill="white"/>
<path d="M34.2469 2.49289L33.3736 3.11039L33.0522 2.68002" fill="white"/>
<path d="M32.1866 2.49289L33.0599 3.11039L33.3812 2.68002" fill="white"/>
<path d="M32.1898 2.49594L33.2697 2.48966L33.2664 3.01139" fill="white"/>
<path d="M33.8534 3.67221L33.516 2.66603L33.0036 2.82732" fill="white"/>
<path d="M33.8553 3.67035L32.9771 3.04757L33.2935 2.62249" fill="white"/>
<path d="M32.5816 3.67035L33.4563 3.05135L33.1364 2.62249" fill="white"/>
<path d="M32.58 3.66882L32.9125 2.66603L33.4298 2.83072" fill="white"/>
<path d="M15.8863 10.208L15.5515 11.2123L16.0666 11.3755" fill="white"/>
<path d="M15.8863 10.208L16.221 11.2123L15.7059 11.3755" fill="white"/>
<path d="M16.9131 10.944L15.8332 10.9377L15.8365 11.4594" fill="white"/>
<path d="M16.9164 10.9409L16.0431 11.5584L15.7218 11.128" fill="white"/>
<path d="M14.8561 10.9409L15.7294 11.5584L16.0507 11.128" fill="white"/>
<path d="M14.8594 10.9439L15.9393 10.9377L15.936 11.4594" fill="white"/>
<path d="M16.5229 12.1202L16.1855 11.114L15.6731 11.2753" fill="white"/>
<path d="M16.5248 12.1183L15.6466 11.4955L15.963 11.0705" fill="white"/>
<path d="M15.2512 12.1183L16.1259 11.4993L15.806 11.0705" fill="white"/>
<path d="M15.2496 12.1168L15.5821 11.114L16.0994 11.2787" fill="white"/>
<path d="M20.2189 10.208L19.8842 11.2123L20.3992 11.3755" fill="white"/>
<path d="M20.2189 10.208L20.5536 11.2123L20.0385 11.3755" fill="white"/>
<path d="M21.2457 10.944L20.1658 10.9377L20.1691 11.4594" fill="white"/>
<path d="M21.249 10.9409L20.3757 11.5584L20.0544 11.128" fill="white"/>
<path d="M19.1887 10.9409L20.062 11.5584L20.3833 11.128" fill="white"/>
<path d="M19.192 10.9439L20.2719 10.9377L20.2686 11.4594" fill="white"/>
<path d="M20.8555 12.1202L20.5181 11.114L20.0057 11.2753" fill="white"/>
<path d="M20.8575 12.1183L19.9792 11.4955L20.2956 11.0705" fill="white"/>
<path d="M19.5838 12.1183L20.4585 11.4993L20.1386 11.0705" fill="white"/>
<path d="M19.5822 12.1168L19.9147 11.114L20.432 11.2787" fill="white"/>
<path d="M20.2189 5.98401L19.8842 6.98832L20.3992 7.15149" fill="white"/>
<path d="M20.2189 5.98401L20.5536 6.98832L20.0385 7.15149" fill="white"/>
<path d="M21.2457 6.71997L20.1658 6.71369L20.1691 7.23542" fill="white"/>
<path d="M21.249 6.71689L20.3757 7.33439L20.0544 6.90402" fill="white"/>
<path d="M19.1887 6.71689L20.062 7.33439L20.3833 6.90402" fill="white"/>
<path d="M19.192 6.71994L20.2719 6.71366L20.2686 7.23539" fill="white"/>
<path d="M20.8555 7.89618L20.5181 6.88999L20.0057 7.05128" fill="white"/>
<path d="M20.8575 7.89432L19.9792 7.27154L20.2956 6.84646" fill="white"/>
<path d="M19.5838 7.89432L20.4585 7.27532L20.1386 6.84646" fill="white"/>
<path d="M19.5822 7.89279L19.9147 6.89L20.432 7.05469" fill="white"/>
</g>
</g>
<defs>
<clipPath id="clip0_5_33">
<rect width="56" height="44" rx="8" fill="white"/>
</clipPath>
</defs>
</svg>
