<svg width="222" height="151" viewBox="0 0 222 151" fill="none" xmlns="http://www.w3.org/2000/svg">
<path fill-rule="evenodd" clip-rule="evenodd" d="M3.25603 38.574C3.25603 38.574 6.60949 37.1095 6.87702 35.9067C7.14697 34.6979 9.68938 32.5655 11.1593 32.1623C12.6449 31.764 15.9875 29.4841 17.4726 30.1647C18.9431 30.8302 19.3452 30.5636 20.5482 30.5636C21.7548 30.5636 23.3685 30.6978 24.1711 32.5655C24.9737 34.4313 27.1157 33.4975 27.9182 33.2309C28.7208 32.9644 32.0786 33.231 32.7465 34.2972C33.4162 35.3736 34.8995 35.3736 35.4345 35.3736C35.9696 35.3736 37.1743 35.6402 37.5747 36.843C37.9769 38.0409 39.9952 36.9729 40.5303 36.1757C41.0647 35.3736 39.1799 32.8302 40.6625 33.4975C42.1348 34.1648 43.6053 34.8405 45.2123 34.9753C46.8284 35.1071 50.5756 34.4313 51.3782 33.764C52.1935 33.0968 52.9961 32.5655 54.2009 33.8982C55.4038 35.2412 60.2315 37.376 60.2315 37.376C60.2315 37.376 61.9738 37.7744 62.9195 39.1071C63.8549 40.4399 67.4801 41.5169 70.6923 39.7726C73.9129 38.0409 75.1178 36.843 75.9204 37.6426C76.723 38.4422 78.4627 38.1757 78.7303 37.2395C79.0087 36.3074 80.2135 35.3736 82.6213 36.0409C85.0418 36.7064 85.3093 36.7064 85.4415 37.9067C85.5768 39.1071 87.4495 38.3074 87.8493 37.7743C88.2515 37.2394 89.0565 36.3075 89.7244 36.574C90.3941 36.843 91.0724 35.2413 91.0724 35.2413C91.0724 35.2413 92.0097 34.0306 93.2145 34.4313C94.4198 34.8405 96.4375 32.9644 96.5722 32.4289C96.705 31.8958 99.2475 30.9643 100.318 31.6292C101.388 32.2989 103.538 31.2309 103.003 30.0306C102.468 28.8193 104.476 27.0858 105.143 28.152C105.813 29.2309 105.946 28.6978 107.831 27.6189C109.704 26.5527 111.311 24.821 113.329 26.1538C115.337 27.4865 122.305 25.3541 122.17 24.0214C122.037 22.6759 120.165 22.1428 121.503 20.4094C122.84 18.6783 129.14 15.2005 130.891 15.2005C132.628 15.2005 133.701 13.7335 134.906 13.3328C136.119 12.9339 138.328 9.95531 139.532 10.8994L139.731 11.1895C139.731 11.1895 143.757 11.3237 144.159 10.5222C144.56 9.72259 144.962 9.18951 145.91 9.45606C146.847 9.72261 146.847 9.05535 146.98 8.38989C147.115 7.72261 148.318 6.65635 149.12 6.77784C149.922 6.91202 151.932 6.6564 151.932 5.84406C151.932 5.04441 153.948 3.44509 154.483 3.44509C155.018 3.44509 156.09 2.3789 156.493 1.44749C156.893 0.502781 161.586 1.16826 161.586 2.37891C161.586 3.5799 164.007 4.37893 165.479 3.71165C166.949 3.04678 168.554 3.31333 167.619 4.11237C166.681 4.91202 162.934 12.9339 162.934 12.9339C162.934 12.9339 158.241 16.934 160.249 17.4671C162.256 18.0002 161.186 18.8083 160.784 19.8763C160.383 20.9425 158.098 23.6207 158.241 24.1538C158.374 24.6869 158.241 25.3541 157.295 25.8872C156.358 26.4203 155.556 28.0196 155.423 28.9535C155.288 29.8982 155.69 31.764 156.625 31.8958C157.571 32.0306 158.776 35.9067 158.098 36.843C157.428 37.7744 156.358 38.7064 155.018 38.574C153.68 38.4423 153.413 38.973 153.413 40.0392C153.413 41.1162 152.61 44.1843 153.013 44.8497C153.413 45.517 155.153 48.0604 154.083 48.327C153.013 48.5935 153.145 49.7945 154.618 49.6597C156.09 49.5279 159.311 48.1952 159.981 48.9948C160.651 49.7945 161.453 48.9949 161.586 48.327C161.721 47.6621 165.612 46.0604 166.549 46.7258C167.484 47.3955 169.772 48.5935 170.04 50.3276C170.307 52.0611 171.51 53.2717 172.179 53.8048C172.847 54.3379 172.58 54.871 172.447 55.4041C172.312 55.9396 173.384 56.3379 174.989 55.5365C176.605 54.7368 176.471 52.4721 177.677 52.871C178.88 53.2717 178.613 53.9372 178.345 54.6044C178.078 55.2699 181.031 55.5365 181.031 54.2037C181.031 52.871 180.496 51.5382 181.836 51.259C183.173 50.9925 189.339 47.3955 188.938 46.7258C188.536 46.0604 188.536 44.7173 189.741 44.5832C190.944 44.4508 192.429 42.8515 192.294 41.9177C192.161 40.9857 192.829 37.9067 193.767 37.9067C194.702 37.9067 195.237 37.2394 195.372 36.4398C195.504 35.6401 195.909 34.9753 196.72 35.6402C197.522 36.3074 198.325 35.3736 198.995 35.3736C199.662 35.3736 200.87 34.6979 201.269 35.3736L201.537 33.764C201.804 32.9644 202.886 31.4975 203.69 30.1647C204.493 28.8193 203.153 28.152 204.493 27.3523C205.83 26.5527 205.965 27.7531 206.5 28.5527C207.035 29.3651 208.385 29.2309 209.455 28.6978C210.525 28.152 211.061 29.4841 210.391 30.1647C209.723 30.8302 210.123 32.2989 211.193 31.8958C212.264 31.4975 211.596 32.6954 211.596 32.6954C211.596 32.6954 212.666 34.6979 213.333 34.574C214.003 34.4313 214.281 35.2412 213.333 35.5078C212.398 35.7743 213.201 38.3075 213.201 39.6402C213.201 40.9856 216.421 44.7174 217.224 44.8497C218.028 44.9839 217.759 44.1842 218.563 44.3166C219.377 44.4508 218.699 46.7258 218.699 48.4617C218.699 50.1928 220.849 49.5279 220.982 50.3276C221.117 51.1266 220.447 51.5383 220.447 51.5383C220.447 51.5383 214.816 52.6044 214.138 52.6044C213.468 52.6044 212.531 52.7386 211.328 52.472C210.123 52.2055 208.92 52.7386 209.321 53.6706C209.723 54.6044 206.098 53.8048 203.02 53.9372C199.932 54.0713 200.467 56.871 201.537 56.871C202.618 56.871 203.555 58.0805 203.288 59.0143C203.02 59.9457 203.69 60.7478 204.76 60.7478C205.83 60.7478 206.767 62.4813 205.83 62.7478C204.895 63.0247 202.485 66.2256 200.734 67.0253C199.932 67.4024 199.574 67.8479 199.061 68.957L199.395 70.5025L198.717 73.2575C197.903 73.3899 197.39 75.1789 198.325 75.712C199.262 76.2451 198.727 77.4431 197.658 77.7097C196.577 77.9786 195.641 79.7224 194.837 81.0551C194.034 82.3878 191.211 83.4565 190.276 84.2561C189.339 85.066 188.269 86.4006 188.938 86.4006C189.606 86.4006 190.944 90.2774 191.748 90.8105C192.562 91.3412 191.626 92.9428 190.811 92.9428C190.008 92.9428 188.938 93.7425 189.473 94.2756C190.008 94.8081 190.944 95.6078 190.008 96.2756C189.071 96.9532 188.671 100.418 188.804 101.619C188.938 102.83 188.136 103.495 187.198 103.762C186.264 104.029 187.601 106.297 188.136 105.896C188.671 105.497 189.071 106.563 189.206 107.229C189.339 107.896 188.671 111.641 189.339 111.772C190.008 111.907 190.276 112.44 190.811 110.574C191.359 108.709 192.829 108.975 193.899 109.641C194.969 110.308 195.372 110.308 194.97 111.374C194.569 112.44 194.569 113.383 194.569 113.383L196.577 115.649L198.192 113.506C198.727 113.917 200.2 113.917 200.602 112.44C201.002 110.973 204.895 115.383 204.225 116.715C203.555 118.048 203.555 118.182 204.895 117.515C206.232 116.849 209.321 121.792 209.856 123.127C210.391 124.47 207.97 125.536 207.97 125.536L209.053 127.27C209.053 127.27 208.92 127.539 210.258 126.203C211.596 124.871 214.684 133.281 214.684 133.281C214.159 133.505 213.38 134.136 212.799 134.347C210.258 135.281 210.658 139.424 211.596 140.635C212.531 141.836 208.92 147.445 208.92 147.445C208.584 147.401 207.66 147.678 207.435 147.844C206.9 148.245 206.232 147.978 205.43 147.712C204.627 147.445 203.69 147.712 203.153 147.978C202.618 148.245 201.672 148.111 201.002 147.978C200.335 147.844 196.979 147.045 195.641 146.369C194.302 145.699 192.161 145.699 191.078 145.836C190.008 145.967 189.741 145.435 189.473 144.366C189.206 143.3 188.269 143.434 187.734 144.899C187.199 146.369 185.581 145.967 185.181 145.967C184.778 145.967 184.243 146.234 184.243 146.912C184.243 147.578 183.173 147.578 182.638 147.445C182.103 147.311 181.836 146.912 181.298 146.102C180.763 145.303 179.415 146.234 178.345 146.912C177.273 147.578 176.605 146.635 177.273 145.699C177.945 144.767 177.14 144.366 175.936 145.567C174.733 146.778 174.187 145.967 173.384 145.967C172.58 145.967 172.045 147.445 171.51 148.377C170.974 149.311 169.102 149.443 168.554 149.443C168.019 149.443 165.879 149.846 165.077 149.978C164.274 150.113 162.934 149.578 162.934 149.578C162.934 149.578 161.721 149.045 160.383 148.778C159.046 148.511 158.098 146.635 158.098 146.102C158.098 145.567 156.76 143.967 156.225 143.434C155.69 142.902 155.556 141.836 155.556 141.303C155.556 140.757 154.35 139.691 153.548 139.556C153.437 139.545 153.326 139.503 153.201 139.434C152.444 139.046 151.53 137.901 150.593 137.558C149.523 137.157 149.255 135.814 149.387 134.88C149.523 133.948 146.3 130.748 145.497 130.336C144.694 129.948 143.49 129.003 142.955 128.204C142.419 127.402 141.752 126.602 139.331 126.336C136.921 126.069 135.396 123.227 135.396 122.483C135.396 121.739 133.009 118.76 131.815 118.315C130.623 117.871 129.419 117.272 129.275 116.24C129.119 115.195 126.521 112.596 125.47 112.15C124.424 111.706 124.578 109.917 124.124 109.318C123.677 108.728 123.231 107.384 121.436 107.685C119.651 107.986 118.981 106.429 118.536 105.084C118.078 103.751 115.247 101.521 113.608 101.075C111.958 100.632 111.958 99.2863 111.958 97.8768C111.958 96.4757 110.763 96.8299 110.106 97.4313C109.437 98.0321 108.613 97.8767 107.709 97.5763C106.819 97.2862 106.516 96.6867 105.768 97.4313C105.024 98.1753 104.576 96.8299 105.024 96.0985C105.469 95.3545 104.275 94.4521 104.275 94.4521C104.275 94.4521 103.382 93.708 102.937 94.3094C102.479 94.8981 101.377 94.8982 101.218 93.5654C101.075 92.22 99.5817 92.8189 99.5817 92.8189C99.5817 92.8189 96.5916 92.5204 95.5452 92.6636C94.4969 92.819 93.9036 93.7081 93.6039 95.4972C93.3024 97.2862 91.8986 96.6866 91.2968 96.0985C90.7041 95.4971 88.7654 95.7975 88.0077 95.7975C87.2609 95.7975 85.9214 95.7975 85.3196 95.1985C84.7294 94.608 82.8676 94.608 81.6755 94.7531C80.4811 94.8981 80.1795 94.8981 78.9875 94.1535C77.793 93.4095 75.028 94.0091 73.2433 93.8658C71.4476 93.7081 69.8109 95.1986 69.2073 95.9408C68.6055 96.6866 67.5038 97.2862 67.0561 97.1303C66.6006 96.9876 65.5602 97.5764 65.1046 97.8768C64.6575 98.1753 61.9737 99.8852 61.5266 100.331C61.0813 100.774 59.8869 100.919 59.1383 100.331C58.3934 99.7317 57.7237 100.774 56.6748 101.22C55.6714 101.653 54.9137 102.941 54.725 103.408C54.3337 102.962 51.5238 100.954 51.5238 98.9514C51.5238 96.9532 50.4427 94.9429 48.57 94.9429C46.6955 94.9429 44.2775 91.6101 44.8228 90.5312C45.3579 89.465 45.2123 87.3326 44.4097 86.9337C43.6053 86.5311 43.3378 84.2561 45.2123 84.2561C47.0959 84.2561 48.8376 82.3879 46.8284 81.5882C44.8229 80.7886 44.01 78.1104 44.1423 77.4431C44.2775 76.7782 43.3378 74.2342 42.1348 75.8438C40.93 77.4431 39.8515 79.0424 39.8515 76.7782C39.8515 74.5117 42.8028 71.3021 41.8674 70.6349C40.9301 69.9694 39.1799 66.624 39.1799 65.0247C39.1799 63.426 38.512 60.4812 37.8422 59.6792C37.1743 58.8795 37.5747 57.2717 36.6393 57.2717C35.702 57.2717 34.0968 57.814 34.4863 59.1461C34.8994 60.4813 34.0969 60.882 33.2815 61.4151C32.479 61.9482 31.4089 63.1467 30.6063 61.6816C29.8037 60.2147 27.3832 54.6045 27.3832 53.8048C27.3832 53.0052 28.0535 51.8048 26.9834 51.9396C25.9133 52.0611 24.4386 52.6044 23.7713 52.6044C23.101 52.6044 22.0224 52.871 21.7548 53.6706C21.4873 54.4703 21.0833 56.2062 20.0132 56.2062C18.9431 56.2062 18.8103 57.6816 18.8103 57.6816C18.8103 57.6816 18.408 58.7478 17.8729 58.8795C17.3379 59.0143 17.0576 57.1485 15.9875 57.814C14.9174 58.4812 14.9174 60.0823 14.2495 58.613C13.5797 57.1485 12.7772 55.5365 11.9619 55.4041C11.1593 55.2699 9.82167 54.0714 11.5621 53.2717C13.3123 52.4721 14.7845 51.9396 15.4524 50.5935C16.1221 49.2614 14.9174 49.2614 14.3824 49.3931C13.8473 49.5279 13.3123 48.9949 13.18 48.327C13.0447 47.6621 12.1099 47.3955 11.5621 47.9286C11.0271 48.4617 10.0891 48.0604 10.2244 47.2613C10.3567 46.4617 9.42184 45.517 7.682 46.5959C5.93124 47.6621 4.32608 46.5959 4.86113 45.6493C5.39619 44.7173 4.59364 44.1843 3.65638 44.1843C2.71913 44.1843 1.38144 42.0519 2.3187 40.9857C3.25596 39.9068 4.05857 38.8406 3.12131 38.4423L3.25603 38.574Z" fill="#F5F5F5" stroke="#666666" stroke-miterlimit="10"/>
</svg>
